<svg fill="none" height="95" viewBox="0 0 95 95" width="95" xmlns="http://www.w3.org/2000/svg" xmlns:xlink="http://www.w3.org/1999/xlink"><g filter="url(#a)"><path d="m85 47.5c0 4.6032-2.5 37.5-2.5 37.5h-8.5s-16.1363 0-26.5 0c-20.7107 0-37.5-16.7893-37.5-37.5s16.7893-37.5 37.5-37.5 37.5 16.7893 37.5 37.5z" fill="#da291c"/></g><path d="m61.8211 33-6.7186 9.5377h7.1156l6.6784-9.5377z" fill="#fff"/><path d="m43.8844 33-17.8844 25.3819 3.9497 4.6181 7.4925-10.6985h10.7789l-4.2864 6.0804 3.9547 4.6181 7.4875-10.6985h11.9598l-4.5076-5.7739h-21.3417l9.4724-13.5276z" fill="#fff"/><filter id="a" color-interpolation-filters="sRGB" filterUnits="userSpaceOnUse" height="95" width="95" x="0" y="0"><feFlood flood-opacity="0" result="BackgroundImageFix"/><feColorMatrix in="SourceAlpha" result="hardAlpha" type="matrix" values="0 0 0 0 0 0 0 0 0 0 0 0 0 0 0 0 0 0 127 0"/><feOffset/><feGaussianBlur stdDeviation="5"/><feComposite in2="hardAlpha" operator="out"/><feColorMatrix type="matrix" values="0 0 0 0 0 0 0 0 0 0 0 0 0 0 0 0 0 0 0.25 0"/><feBlend in2="BackgroundImageFix" mode="normal" result="effect1_dropShadow_5753_1490"/><feBlend in="SourceGraphic" in2="effect1_dropShadow_5753_1490" mode="normal" result="shape"/></filter></svg>