<svg style="visibility: hidden; position: absolute; right: 100%; bottom: 100%">
	<symbol id="logo" viewBox="0 0 64 45" xmlns="http://www.w3.org/2000/svg">
		<g fill="currentColor">
			<path d="m53.1506 0-9.969 14.1519h10.558l9.9094-14.1519z" />
			<path d="m26.5367 0-26.5367 37.6613 5.86059 6.8523 11.11721-15.8743h15.9936l-6.3602 9.022 5.8681 6.8523 11.1097-15.8743h17.7458l-6.6882-8.5672h-31.6665l14.0549-20.0721z" />
		</g>
	</symbol>
	<symbol id="logo-text" viewBox="0 0 194 65" xmlns="http://www.w3.org/2000/svg">
		<g fill="currentColor">
			<path d="m92.7482 54.2209c-.1119-.1566-10.7071-15.5537-10.7071-15.5537s-.261-.4176-.7307-.4176h-4.6229v26.2832h5.2492v-16.7243c.0895.1119.1342.1715.1789.2312 3.8474 5.4281 7.6874 10.8562 11.5273 16.2918.1193.164.2386.2311.44.2311 1.1855-.0074 2.3785 0 3.564 0 .0895 0 .179-.0149.2759-.0223v-26.2981h-5.1746v15.9712z" />
			<path d="m137.905 47.8319c-.194 1.5285-.954 2.2816-2.498 2.3934-1.558.1118-3.132.082-4.742.1193v-7.1654s.045-.0373.06-.0373c1.603.0224 3.206 0 4.801.0746 1.342.0671 2.207.8723 2.371 2.2145.097.7903.105 1.6105 0 2.4009m2.014 5.6667c1.856-.6338 3.072-1.9088 3.713-3.7356.678-1.9162.708-3.8772.276-5.8531-.425-1.9386-1.462-3.4522-3.236-4.4066-1.656-.8948-3.46-1.2229-5.302-1.2527-3.444-.0447-10.647-.0224-10.647-.0224v26.2907h5.935v-9.805c.134 0 .239-.0149.343-.0149 1.021 0 2.036.0075 3.057-.0074.254 0 .365.0894.47.3131 1.446 3.0944 2.9 6.1812 4.339 9.2756.097.2087.209.2684.425.2684 2.103-.0075 4.198 0 6.301 0 .089 0 .179-.0075.306-.0149-2.058-3.6685-4.094-7.3071-6.137-10.9532.06-.0298.104-.0597.157-.082z" />
			<path d="m108.898 53.3641h9.7v-4.7049h-9.7v-5.2119h11.542l-.104-5.1895h-17.381v26.2683h17.902l.142-5.1299h-12.101z" />
			<path d="m60.7539 53.3712h9.7005v-4.7049h-9.6931v-5.2417h11.4901v-5.1746h-17.4252v26.2757h17.9098l.1193-5.1373h-12.1014z" />
			<path d="m167.595 50.4177h-5.227v8.9624c-.112.0298-.216.0671-.313.0895-1.551.3579-3.109.3579-4.667.0745-1.007-.1864-1.887-.6263-2.551-1.4315-.507-.6189-.835-1.3422-.976-2.1102-.202-1.1109-.358-2.2368-.418-3.3627-.104-2.0132-.074-4.0264.462-5.9873.284-1.029.776-1.9387 1.671-2.5948.835-.6189 1.789-.8575 2.781-.9842 2.035-.2685 4.041-.0746 6.032.3579.753.164 1.484.4026 2.252.6114.179-1.6851.365-3.3702.551-5.0553-.044-.0224-.074-.0448-.104-.0522-.097-.0373-.194-.0821-.298-.1119-2.304-.7158-4.66-1.0662-7.076-1.0364-1.834.0149-3.639.1864-5.384.7829-2.169.7382-3.936 1.9908-5.152 3.9667-.924 1.5062-1.416 3.1615-1.692 4.8838-.284 1.7597-.328 3.5343-.261 5.3163.067 1.7522.305 3.4746.827 5.1523.582 1.864 1.536 3.4895 3.072 4.7198 2.066 1.6552 4.519 2.2443 7.084 2.3636 1.446.0671 2.908 0 4.347-.1268 1.64-.1491 3.243-.5145 4.764-1.1632.231-.0969.284-.2087.284-.4399 0-4.1605 0-8.3211 0-12.4817v-.343z" />
			<path d="m193.502 38.234c-2.058 0-4.116 0-6.174-.0074-.201 0-.246.1118-.306.246-1.543 3.6386-5.241 12.3922-5.241 12.3922l-5.443-12.3251s-.097-.3131-.425-.3131c-.329 0-6.368.0298-6.368.0298s6.002 11.8405 8.91 17.5743c.097.1938.157.4399.157.6636.007 2.55 0 5.1075 0 7.6575v.3803h6.039v-.4101c0-2.5426 0-5.0851 0-7.6277 0-.2088.06-.4399.149-.6338 2.878-5.7711 5.764-11.5348 8.65-17.3059.052-.0969.096-.2013.141-.3057-.059-.0149-.082-.0223-.097-.0223" />
		</g>
	</symbol>
	<symbol id="email" viewBox="0 0 166 172" xmlns="http://www.w3.org/2000/svg">
		<path d="m35.6 15.67c14.59-10.17 32.52-16 50.38-14.79 16.96-1.2 34.33 3.35 48.51 12.77 18.68 11.82 29.87 33.52 30.83 55.35-.18 4.65-.06 9.31-.05 13.96-1.17 12.92-4.46 26.28-12.85 36.5-6.05 7.49-16 11.03-25.46 10.4-6.63-.08-13.37-3.01-17.27-8.51-2.46-3.02-3.74-6.73-5.22-10.27-3.51 7.9-9.89 15.11-18.46 17.47-8.78 2.01-18.79 1.16-26.15-4.43-8.84-6.55-13.2-17.51-14.16-28.2-.95-10.63-.24-21.65 3.55-31.71 4.48-11.87 15.05-21.43 27.61-23.85 12.31-2.24 25.26-.17 36.44 5.37.88.56 2.47.99 2.23 2.35-.01 16.3-.06 32.6.01 48.9.23 5.79.5 12.35 4.71 16.82 6.15 5.35 16.42 2.82 20.63-3.8 6.57-10.01 6.91-22.49 7.26-34.07.41-16.71-4.45-34.56-17.11-46.15-12.06-11.18-28.98-15.45-45.09-15.17-17.03-.27-34.47 5.57-46.77 17.59-12.5 11.82-19.25 28.78-20.63 45.74-1.42 16.75.93 34.31 9.35 49.07 8.74 15.31 24.83 25.63 41.99 28.83 17.42 3.17 35.51.93 52.15-4.87 1.71 4.07 2.84 8.35 4.63 12.39-.64.92-1.5 1.52-2.59 1.78-11.94 3.95-24.49 6.63-37.12 6.11-20.37.89-41.24-5.26-57.25-18.04-14.05-11.24-23.4-27.74-26.89-45.31-3.69-18.02-2.78-37.14 3.66-54.45 5.59-15.15 15.83-28.6 29.13-37.78m44.76 36.84c-8.46 1.76-14.05 9.5-16.08 17.48-2.38 9.05-2.59 18.6-1.5 27.87.89 6.74 3.52 14.07 9.77 17.58 7.74 3.65 17.76.85 22.79-6.01 2.29-3.42 5.07-7.11 4.68-11.46-.04-12.99-.03-25.97 0-38.95-.16-1.51.33-3.21-.38-4.58-6-2.64-12.88-3.25-19.28-1.93z" fill="currentColor" />
	</symbol>
	<symbol id="tlg" viewBox="0 0 175 157" xmlns="http://www.w3.org/2000/svg">
		<path d="m160.87 2.89c3.06-1.13 6.54-3.24 9.78-1.48 3.25 1.34 4.58 5.35 3.61 8.57-8.66 45.43-17.35 90.85-25.99 136.28-.62 2.77-.63 6.08-2.98 8.07-2.36 2.28-6.27 2.35-8.82.34-14.46-9.78-28.89-19.59-43.34-29.39-7.89 5.72-15.77 11.46-23.75 17.04-3.75 2.82-9.55.17-10.41-4.28-3.92-14.78-7.78-29.58-11.7-44.35-13.82-5.17-27.55-10.55-41.36-15.74-3.26-1.05-5.74-4.56-4.93-8.02.35-2.82 2.83-4.62 5.31-5.54 51.54-20.46 103.05-40.99 154.58-61.5m-94.5 52.45c-13.14 5.27-26.41 10.26-39.43 15.83 9.32 3.72 18.73 7.2 28.1 10.79 2.04.79 3.96 2.35 4.53 4.54 1.3 4.61 2.55 9.23 3.58 13.9.62-1.68 1.49-3.26 2.85-4.45 23.67-23.03 47.73-45.64 71.24-68.82-23.62 9.4-47.27 18.74-70.87 28.21m14.64 45.07c18.29 12.45 36.58 24.9 54.94 37.24 6.89-36.68 13.97-73.32 20.91-109.99-25.4 24.13-50.42 48.66-75.85 72.75m-16.21 5.62c1.62 6.36 3.3 12.7 4.98 19.03 3.82-2.59 7.53-5.34 11.28-8.03-5.49-3.56-10.84-7.33-16.26-11z" fill="currentColor" />
	</symbol>
	<symbol id="vk" viewBox="0 0 216 133" xmlns="http://www.w3.org/2000/svg">
		<path d="m4.92 2c3-1.89 6.68-1.49 10.05-1.53 4.66.14 9.33-.16 13.99.1 3.93.1 7.62 2.74 8.96 6.44 6.6 18.48 14.87 36.61 26.71 52.36 2.52 3.12 5.01 6.38 8.3 8.72 4.32 2.5 10.56-1.04 10.27-6.13.11-11.96.05-23.93.03-35.89.28-7.69-6.48-12.65-9.48-19.08-1.35-3.31 1.92-6.87 5.32-6.46 10.99.1 21.98.2 32.97.39 5.5-.29 10.47 4.58 10.32 10.08.09 13.35-.05 26.71.03 40.07-.32 4.24 3.3 8.2 7.56 8.17 3.55.25 6.02-2.67 8.46-4.77 14.48-13.63 24.65-31.06 33.4-48.73 3.83-6.78 12.71-5.02 19.21-5.24 5.9.43 13.63-1.82 17.7 3.83 3.53 4.61.48 10.28-1.64 14.77-8.77 17.36-20.61 33.01-33.65 47.37-1.29 1.48-2.63 3.31-2.14 5.39.32 3.04 3.08 4.8 5.14 6.68 12.28 10.72 24.62 21.66 34.25 34.9 1.96 2.9 4.32 5.86 4.58 9.5.24 5.02-4.14 9.81-9.28 9.54-8.65-.02-17.31.2-25.94-.11-5.46-.42-7.84-5.95-10.48-9.92-6.17-8.96-13.31-17.52-22.36-23.71-4.45-3.03-9.62-5.45-15.11-5.36-4.75.1-9.14 4.01-9.56 8.79-.55 7.27.26 14.58-.33 21.85-.56 4.92-5.33 8.8-10.25 8.47-7.77-.52-15.43-2.3-22.83-4.68-21.01-6.91-38.89-21.35-52.35-38.67-17.68-22.66-28.73-49.67-36.77-77.06v-3.01c.96-2.72 2.25-5.63 4.92-7.07m7.45 10.02c2.16 8.59 5.3 16.9 8.48 25.14 9.04 22.22 21.23 43.76 39.19 59.99 13.92 12.86 31.81 21.45 50.69 23.59.45-7.92-.98-16.06 1.02-23.82 2.45-8 9.88-14.29 18.26-15.06 9.02-.89 17.8 2.91 24.98 8.09 11.25 8.14 20.07 19.18 27.38 30.88 6.46.09 12.91.03 19.37.04-10.29-14.11-23.72-25.43-36.74-36.9-6.33-6.02-7.29-16.82-1.67-23.63 13.22-14.6 25.58-30.33 34.12-48.19-5.33-.01-10.67-.15-16 .1-8.46 17.62-18.91 34.55-32.73 48.5-4.34 4.01-8.66 8.78-14.79 9.79-10.92 2.47-22.82-6.33-23.11-17.64-.19-13.47.01-26.94-.09-40.4-6.51.05-13.02-.19-19.53-.14 2.32 4.14 3.79 8.82 3.68 13.61-.02 12.02.02 24.04-.01 36.07.18 7.16-4.36 14.07-10.95 16.82-6.9 3.18-15.72 1.67-20.97-3.87-11.18-11.07-18.87-25.05-25.73-39.06-3.64-7.73-7.07-15.59-9.72-23.73-5.04-.18-10.09.03-15.13-.18z" fill="currentColor" />
	</symbol>
	<symbol id="wt" viewBox="0 0 183 183" xmlns="http://www.w3.org/2000/svg">
		<path d="m25.86 28.89c13.93-14.8 32.97-24.63 53.09-27.44 6.28-1.67 12.7-.01 19.06-.7 19.47 1.33 38.46 9.17 53.16 22.04 19.53 16.81 31.54 42.35 31.09 68.21.46 18.99-5.85 37.95-16.92 53.32-10.75 14.93-26.12 26.5-43.5 32.56-22.24 8.01-47.66 6.64-68.89-3.78-1.57-.71-3.19-1.91-4.99-1.16-13.32 3.24-26.6 6.66-39.92 9.85-3.95 1.35-8.11-2.7-6.84-6.67 3.61-13.42 7.47-26.78 11.18-40.18-8-14.54-12.19-31.29-11.38-47.89 1.06-21.52 9.94-42.59 24.86-58.16m12.98 2.94c-11.16 9.92-19.54 22.99-23.59 37.38-5.8 20.07-3.43 42.51 6.94 60.71.93 1.78 2.21 3.74 1.48 5.84-2.8 10.98-6.27 21.78-8.99 32.78 11.48-2.41 22.77-5.7 34.22-8.26 1.97-.66 3.83.45 5.53 1.29 20.66 11.21 46.41 12.24 68.03 3.14 15.82-6.59 29.38-18.47 37.97-33.3 9.63-16.2 12.94-35.94 9.55-54.45-3.21-18.13-13.09-34.96-27.25-46.71-14.28-12.08-32.99-18.8-51.7-18.48-19.07-.02-38.02 7.31-52.19 20.06z" fill="currentColor" />
		<path d="m51.54 45.62c4.16-2.99 9.52-2.65 14.37-2.29 3.46.33 6.2 3.03 7.59 6.08 2.37 5.08 4.21 10.39 6.56 15.48 1.23 2.87 2.76 6.07 1.66 9.23-1.05 4.12-4.25 7.1-6.59 10.48 6.54 9.76 15.52 18.34 26.75 22.32 4.11-2.67 5.71-8.4 10.42-10.49 2.8-1.21 5.9-.39 8.56.78 5.98 2.57 11.74 5.63 17.68 8.29 2.93 1.23 5.22 4.2 5.16 7.45.14 6.78-1.62 14.28-7.08 18.77-5.54 4.49-12.37 7.79-19.63 7.77-7.55.47-14.7-2.41-21.64-4.98-18.85-6.9-33.87-21.42-45.33-37.52-5.28-7-9.41-15.16-10.24-23.99-.96-10.34 3.66-20.94 11.76-27.38m6.9 8.9c-3.79 3.08-6.92 7.39-7.36 12.38-1.22 7.5 2.29 14.64 6.15 20.81 7.38 11.01 16.37 21.1 27.32 28.67 6.8 4.78 14.6 7.88 22.45 10.47 7.17 2.39 15.8 2.01 21.68-3.2 2.85-1.93 3.59-5.43 3.83-8.65-5.3-2.23-10.29-5.12-15.61-7.3-2.5 1.37-3.76 4.38-5.82 6.37-2.37 3.09-6.18 5.81-10.26 4.54-15.82-5.47-29.65-17.07-37.15-32.08-2.28-6.17 3.94-10.17 7.1-14.46-2.16-6-4.85-11.78-7.25-17.68-1.69.01-3.4-.13-5.08.13z" fill="currentColor" />
	</symbol>
	<symbol id="quotes" viewBox="0 0 61 40" xmlns="http://www.w3.org/2000/svg">
		<path fill-rule="evenodd" clip-rule="evenodd" d="M46.9467 13.3333C54.3138 13.3333 60.274 19.3331 60.274 26.6667C60.274 34.0002 54.2468 40 46.8798 40C39.5127 40 33.4855 34.0002 33.4855 26.6667C33.4855 11.9333 45.4734 0 60.274 0C60.274 0 51.5009 3.26643 46.9467 13.3333ZM26.7884 26.6667C26.7884 34.0002 20.7613 40 13.3942 40C6.02716 40 0 34.0002 0 26.6667C0 11.9333 11.9878 0 26.7884 0C26.7884 0 18.0153 3.26679 13.4612 13.3333C20.8282 13.3333 26.7884 19.3331 26.7884 26.6667Z" fill="currentColor" />
	</symbol>
</svg>
