<svg style="visibility: hidden; position: absolute; right: 100%; bottom: 100%">
	<symbol id="tlg" viewBox="0 0 175 157" xmlns="http://www.w3.org/2000/svg">
		<path d="m160.87 2.89c3.06-1.13 6.54-3.24 9.78-1.48 3.25 1.34 4.58 5.35 3.61 8.57-8.66 45.43-17.35 90.85-25.99 136.28-.62 2.77-.63 6.08-2.98 8.07-2.36 2.28-6.27 2.35-8.82.34-14.46-9.78-28.89-19.59-43.34-29.39-7.89 5.72-15.77 11.46-23.75 17.04-3.75 2.82-9.55.17-10.41-4.28-3.92-14.78-7.78-29.58-11.7-44.35-13.82-5.17-27.55-10.55-41.36-15.74-3.26-1.05-5.74-4.56-4.93-8.02.35-2.82 2.83-4.62 5.31-5.54 51.54-20.46 103.05-40.99 154.58-61.5m-94.5 52.45c-13.14 5.27-26.41 10.26-39.43 15.83 9.32 3.72 18.73 7.2 28.1 10.79 2.04.79 3.96 2.35 4.53 4.54 1.3 4.61 2.55 9.23 3.58 13.9.62-1.68 1.49-3.26 2.85-4.45 23.67-23.03 47.73-45.64 71.24-68.82-23.62 9.4-47.27 18.74-70.87 28.21m14.64 45.07c18.29 12.45 36.58 24.9 54.94 37.24 6.89-36.68 13.97-73.32 20.91-109.99-25.4 24.13-50.42 48.66-75.85 72.75m-16.21 5.62c1.62 6.36 3.3 12.7 4.98 19.03 3.82-2.59 7.53-5.34 11.28-8.03-5.49-3.56-10.84-7.33-16.26-11z" fill="currentColor" />
	</symbol>
	<symbol id="vk" viewBox="0 0 216 133" xmlns="http://www.w3.org/2000/svg">
		<path d="m4.92 2c3-1.89 6.68-1.49 10.05-1.53 4.66.14 9.33-.16 13.99.1 3.93.1 7.62 2.74 8.96 6.44 6.6 18.48 14.87 36.61 26.71 52.36 2.52 3.12 5.01 6.38 8.3 8.72 4.32 2.5 10.56-1.04 10.27-6.13.11-11.96.05-23.93.03-35.89.28-7.69-6.48-12.65-9.48-19.08-1.35-3.31 1.92-6.87 5.32-6.46 10.99.1 21.98.2 32.97.39 5.5-.29 10.47 4.58 10.32 10.08.09 13.35-.05 26.71.03 40.07-.32 4.24 3.3 8.2 7.56 8.17 3.55.25 6.02-2.67 8.46-4.77 14.48-13.63 24.65-31.06 33.4-48.73 3.83-6.78 12.71-5.02 19.21-5.24 5.9.43 13.63-1.82 17.7 3.83 3.53 4.61.48 10.28-1.64 14.77-8.77 17.36-20.61 33.01-33.65 47.37-1.29 1.48-2.63 3.31-2.14 5.39.32 3.04 3.08 4.8 5.14 6.68 12.28 10.72 24.62 21.66 34.25 34.9 1.96 2.9 4.32 5.86 4.58 9.5.24 5.02-4.14 9.81-9.28 9.54-8.65-.02-17.31.2-25.94-.11-5.46-.42-7.84-5.95-10.48-9.92-6.17-8.96-13.31-17.52-22.36-23.71-4.45-3.03-9.62-5.45-15.11-5.36-4.75.1-9.14 4.01-9.56 8.79-.55 7.27.26 14.58-.33 21.85-.56 4.92-5.33 8.8-10.25 8.47-7.77-.52-15.43-2.3-22.83-4.68-21.01-6.91-38.89-21.35-52.35-38.67-17.68-22.66-28.73-49.67-36.77-77.06v-3.01c.96-2.72 2.25-5.63 4.92-7.07m7.45 10.02c2.16 8.59 5.3 16.9 8.48 25.14 9.04 22.22 21.23 43.76 39.19 59.99 13.92 12.86 31.81 21.45 50.69 23.59.45-7.92-.98-16.06 1.02-23.82 2.45-8 9.88-14.29 18.26-15.06 9.02-.89 17.8 2.91 24.98 8.09 11.25 8.14 20.07 19.18 27.38 30.88 6.46.09 12.91.03 19.37.04-10.29-14.11-23.72-25.43-36.74-36.9-6.33-6.02-7.29-16.82-1.67-23.63 13.22-14.6 25.58-30.33 34.12-48.19-5.33-.01-10.67-.15-16 .1-8.46 17.62-18.91 34.55-32.73 48.5-4.34 4.01-8.66 8.78-14.79 9.79-10.92 2.47-22.82-6.33-23.11-17.64-.19-13.47.01-26.94-.09-40.4-6.51.05-13.02-.19-19.53-.14 2.32 4.14 3.79 8.82 3.68 13.61-.02 12.02.02 24.04-.01 36.07.18 7.16-4.36 14.07-10.95 16.82-6.9 3.18-15.72 1.67-20.97-3.87-11.18-11.07-18.87-25.05-25.73-39.06-3.64-7.73-7.07-15.59-9.72-23.73-5.04-.18-10.09.03-15.13-.18z" fill="currentColor" />
	</symbol>
</svg>
