<svg width="18" height="17" viewBox="0 0 18 17" fill="none" xmlns="http://www.w3.org/2000/svg">
<path d="M7.12137 14.2305C8.72471 14.2314 10.281 13.6883 11.5356 12.6896L15.8458 17L17.0061 15.8398L12.6959 11.5294C14.0384 9.83214 14.5355 7.61602 14.0468 5.50821C13.558 3.39995 12.1364 1.62884 10.1839 0.695731C8.23123 -0.23757 5.96015 -0.231657 4.01272 0.712148C2.06519 1.65576 0.653166 3.4343 0.17552 5.54505C-0.302096 7.65575 0.206826 9.86918 1.55837 11.5594C2.91008 13.2495 4.95726 14.2326 7.12162 14.2309L7.12137 14.2305ZM7.12137 1.64184C8.57293 1.64184 9.96511 2.21854 10.9916 3.24498C12.018 4.27143 12.5947 5.66361 12.5947 7.11517C12.5947 8.56672 12.018 9.9589 10.9916 10.9853C9.96511 12.0118 8.57293 12.5885 7.12137 12.5885C5.66962 12.5885 4.27744 12.0118 3.25099 10.9853C2.22455 9.9589 1.64804 8.56672 1.64804 7.11517C1.64804 5.66361 2.22455 4.27143 3.25099 3.24498C4.27744 2.21854 5.66962 1.64184 7.12137 1.64184Z" fill="black"/>
</svg>
