<?xml version="1.0" encoding="UTF-8" ?>
<!DOCTYPE svg PUBLIC "-//W3C//DTD SVG 1.1//EN" "http://www.w3.org/Graphics/SVG/1.1/DTD/svg11.dtd">
<svg width="310pt" height="278pt" viewBox="0 0 310 278" version="1.1" xmlns="http://www.w3.org/2000/svg">
<g id="#ffffffff">
</g>
<g id="#da291cff">
<path fill="#da291c" opacity="1.00" d=" M 164.85 3.28 C 180.70 -0.66 197.70 0.20 213.07 5.73 C 232.49 12.58 249.11 26.89 258.87 45.02 C 266.66 59.28 270.14 75.90 268.62 92.09 C 268.00 93.78 269.93 94.28 271.00 94.90 C 292.09 104.45 306.99 125.98 308.97 149.00 C 310.99 168.83 303.59 189.42 289.25 203.29 C 276.96 215.81 259.47 222.88 241.96 222.88 C 233.96 222.85 225.96 222.92 217.96 222.86 C 215.19 223.00 212.40 221.48 211.19 218.97 C 209.15 215.24 211.58 209.79 215.86 209.13 C 230.17 207.85 245.05 210.98 258.91 206.13 C 273.57 201.27 285.72 189.73 291.47 175.42 C 296.39 163.26 296.54 149.28 292.07 136.97 C 287.03 123.03 275.81 111.46 261.99 106.08 C 257.13 104.33 253.59 99.25 254.41 94.02 C 256.16 80.75 254.09 66.98 248.23 54.92 C 239.96 37.26 223.93 23.42 205.24 17.83 C 190.58 13.29 174.41 13.87 160.08 19.34 C 144.52 25.18 131.13 36.66 123.26 51.33 C 120.60 56.61 113.32 58.06 108.64 54.60 C 97.85 47.47 83.48 46.39 71.68 51.64 C 54.75 58.62 44.22 78.17 48.33 96.14 C 49.25 100.94 46.74 106.21 42.32 108.36 C 29.27 115.20 19.27 127.64 15.63 141.93 C 12.28 154.84 13.90 169.00 20.29 180.73 C 27.06 193.43 39.16 203.15 53.04 206.97 C 63.41 210.00 74.31 208.54 84.94 208.87 C 89.09 209.14 94.51 207.66 97.32 211.68 C 100.90 215.80 97.44 222.92 92.03 222.83 C 83.35 222.94 74.65 222.86 65.96 222.86 C 46.17 222.62 26.82 212.92 14.61 197.38 C 5.81 186.46 0.73 172.70 0.00 158.71 L 0.00 152.24 C 1.12 129.61 14.25 107.79 34.22 96.88 C 32.73 87.28 33.71 77.30 37.42 68.29 C 44.19 50.97 60.57 37.84 78.98 35.09 C 90.73 33.03 102.84 35.55 113.40 40.86 C 124.45 22.02 143.73 8.46 164.85 3.28 Z" />
<path fill="#da291c" opacity="1.00" d=" M 145.56 113.59 C 149.93 108.71 158.33 108.22 162.98 112.97 C 179.15 129.15 195.32 145.34 211.51 161.50 C 213.61 163.37 214.33 166.53 213.24 169.12 C 211.74 173.43 205.45 175.28 202.20 171.81 C 189.34 158.99 176.51 146.14 163.68 133.29 C 163.19 132.91 162.21 132.14 161.73 131.76 C 161.44 178.17 161.79 224.60 161.56 271.01 C 161.40 275.59 156.11 278.68 151.98 276.87 C 149.29 275.78 147.42 272.95 147.62 270.02 C 147.65 223.98 147.57 177.93 147.67 131.89 C 145.62 133.02 144.16 134.88 142.51 136.49 C 130.83 148.15 119.18 159.86 107.48 171.50 C 104.57 174.62 98.85 174.18 96.68 170.45 C 94.47 167.52 95.53 163.36 98.10 161.04 C 113.92 145.22 129.72 129.38 145.56 113.59 Z" />
</g>
</svg>
