<svg height="172pt" viewBox="0 0 166 172" width="166pt" xmlns="http://www.w3.org/2000/svg">
	<path d="m35.6 15.67c14.59-10.17 32.52-16 50.38-14.79 16.96-1.2 34.33 3.35 48.51 12.77 18.68 11.82 29.87 33.52 30.83 55.35-.18 4.65-.06 9.31-.05 13.96-1.17 12.92-4.46 26.28-12.85 36.5-6.05 7.49-16 11.03-25.46 10.4-6.63-.08-13.37-3.01-17.27-8.51-2.46-3.02-3.74-6.73-5.22-10.27-3.51 7.9-9.89 15.11-18.46 17.47-8.78 2.01-18.79 1.16-26.15-4.43-8.84-6.55-13.2-17.51-14.16-28.2-.95-10.63-.24-21.65 3.55-31.71 4.48-11.87 15.05-21.43 27.61-23.85 12.31-2.24 25.26-.17 36.44 5.37.88.56 2.47.99 2.23 2.35-.01 16.3-.06 32.6.01 48.9.23 5.79.5 12.35 4.71 16.82 6.15 5.35 16.42 2.82 20.63-3.8 6.57-10.01 6.91-22.49 7.26-34.07.41-16.71-4.45-34.56-17.11-46.15-12.06-11.18-28.98-15.45-45.09-15.17-17.03-.27-34.47 5.57-46.77 17.59-12.5 11.82-19.25 28.78-20.63 45.74-1.42 16.75.93 34.31 9.35 49.07 8.74 15.31 24.83 25.63 41.99 28.83 17.42 3.17 35.51.93 52.15-4.87 1.71 4.07 2.84 8.35 4.63 12.39-.64.92-1.5 1.52-2.59 1.78-11.94 3.95-24.49 6.63-37.12 6.11-20.37.89-41.24-5.26-57.25-18.04-14.05-11.24-23.4-27.74-26.89-45.31-3.69-18.02-2.78-37.14 3.66-54.45 5.59-15.15 15.83-28.6 29.13-37.78m44.76 36.84c-8.46 1.76-14.05 9.5-16.08 17.48-2.38 9.05-2.59 18.6-1.5 27.87.89 6.74 3.52 14.07 9.77 17.58 7.74 3.65 17.76.85 22.79-6.01 2.29-3.42 5.07-7.11 4.68-11.46-.04-12.99-.03-25.97 0-38.95-.16-1.51.33-3.21-.38-4.58-6-2.64-12.88-3.25-19.28-1.93z" fill="#da291c" />
</svg>
