<svg fill="none" height="90" viewBox="0 0 79 90" width="79" xmlns="http://www.w3.org/2000/svg"><g fill="#a9a9a9"><path d="m18.5554 53.7511h41.8677c.4269 0 .8225-.2234 1.0436-.5891.2204-.3658.2334-.8195.0345-1.1975l-20.9349-39.7738c-.4216-.8011-1.7353-.8011-2.1569 0l-20.9349 39.7738c-.1989.378-.1859.8317.0344 1.1975.2212.3665.6167.5891 1.0437.5891zm20.9348-38.3773 18.9154 35.9387-37.8308-.0008z"/><path d="m43.3125 37.5643c-.1997-.4315-.632-.7085-1.1071-.7085h-5.3804l5.5618-6.4791-1.8493-1.5876-7.2902 8.4914c-.3107.3612-.3818.87-.1821 1.303.1989.4323.6304.7101 1.1071.7101h5.3926l-4.9811 5.8401 1.8547 1.5815 6.6949-7.8502c.3076-.3611.3781-.8699.1791-1.3007z"/><path d="m77.763 20.36c.6733 0 1.2188-.5456 1.2188-1.2189v-9.21048c0-.67331-.5447-1.21886-1.2188-1.21886h-5.5128v-7.4929c0-.673316-.5448-1.21886-1.2189-1.21886l-63.08075.00076513c-.67332 0-1.21886.54554387-1.21886 1.21885487v7.49291h-5.51283c-.673315 0-1.21886.54554-1.21886 1.21886v9.21051c0 .6733.544761 1.2189 1.21886 1.2189h5.51283v29.5748h-5.51283c-.673315 0-1.21886.5455-1.21886 1.2188v9.2105c0 .6733.544761 1.2189 1.21886 1.2189h5.51283v7.4929c0 .6733.54476 1.2188 1.21886 1.2188h4.54565l2.3788 9.845c.1324.5471.6213.9327 1.1845.9327h2.0543v7.708c0 .6733.5447 1.2188 1.2188 1.2188h5.6535c.6733 0 1.2188-.5455 1.2188-1.2188v-7.708h9.2405v7.708c0 .6733.5448 1.2188 1.2189 1.2188h5.6535c.6733 0 1.2188-.5455 1.2188-1.2188v-7.708h9.2405v7.708c0 .6733.5448 1.2188 1.2188 1.2188h5.6535c.6733 0 1.2189-.5455 1.2189-1.2188v-7.708h2.0543c.5631 0 1.052-.3857 1.1844-.9327l2.3789-9.845h4.5456c.6733 0 1.2188-.5455 1.2188-1.2188v-7.4929h5.5129c.6733 0 1.2188-.5456 1.2188-1.2189v-9.2105c0-.6733-.5447-1.2188-1.2188-1.2188h-5.5129l-.0007-29.5748zm-5.5128-9.2105h4.2939v6.7729h-4.2939zm-65.51745 47.9966h-4.29392v-6.7737h4.29392zm0-41.2234h-4.29392v-6.7728h4.29392zm17.03565 69.6386h-3.2159v-6.489h3.2159zm17.3316 0h-3.2159v-6.489h3.2159zm17.3315 0h-3.2158v-6.489h3.2158zm3.5318-8.9267h-44.9429l-2.0154-8.3398h48.976zm7.8494-10.7775h-60.64212v-65.41945h60.64412zm6.7324-15.4847v6.7737h-4.294v-6.7737z"/></g></svg>