<svg fill="none" height="100" viewBox="0 0 99 100" width="99" xmlns="http://www.w3.org/2000/svg"><g fill="#a9a9a9"><path d="m35.644 18.2171c-1.8357-.9333-3.8074-1.4085-5.8582-1.4085-4.915 0-9.3462 2.7129-11.5691 7.0782-3.2413 6.368-.6954 14.1867 5.6726 17.4295 1.8357.9334 3.8058 1.4071 5.8566 1.4071 4.9151 0 9.3477-2.7129 11.5714-7.0797 3.239-6.3665.6932-14.1839-5.6733-17.4266zm3.4592 16.3026c-1.798 3.5309-5.3829 5.7244-9.3581 5.7244-1.6553 0-3.2464-.3821-4.7296-1.1374-5.1479-2.6206-7.2076-8.942-4.587-14.0905 1.7958-3.5295 5.3801-5.7229 9.3558-5.7229 1.6554 0 3.2479.382 4.7312 1.1388 5.1487 2.6191 7.2068 8.9412 4.5877 14.0876z"/><path d="m54.1924 47.4923 4.2826-8.4144c.2697-.5284.1271-1.1736-.3392-1.5409l-5.6334-4.4184c.1537-1.0398.235-2.0892.2416-3.1333l6.1516-3.4564c.5166-.2897.7567-.9038.5727-1.467l-2.922-8.9751c-.1818-.5632-.7249-.929-1.3257-.8492l-7.0088.8248c-.6237-.8425-1.3058-1.6436-2.0376-2.3923l1.9532-6.88825c.1626-.57125-.1027-1.17502-.6304-1.4455l-8.4144-4.2826c-.5284-.268267-1.1721-.127112-1.5408.34068l-4.4185 5.63491c-1.0375-.15223-2.0891-.23353-3.1319-.24165l-3.4578-6.152894c-.2897-.516572-.9038-.758219-1.4669-.5727224l-8.9812 2.9219764c-.5632.18402-.9186.73826-.8492 1.32578l.8262 7.01027c-.8409.6208-1.642 1.3044-2.3907 2.0376l-6.88826-1.9532c-.57051-.1582-1.17651.1049-1.44476.6333l-4.2826 8.4145c-.269745.5284-.125634 1.1735.34068 1.5393l5.6334 4.4215c-.15224 1.0375-.23354 2.0876-.24165 3.132l-6.154413 3.4577c-.516573.2897-.756744.9038-.5727227 1.4669l2.9234957 8.9752c.18401.5631.73531.9267 1.32577.8477l7.00876-.8263c.6208.8396 1.3044 1.6406 2.0396 2.3908l-1.9539 6.8875c-.1626.5712.1027 1.1772.6304 1.4455l8.4144 4.2854c.5284.2735 1.1736.1271 1.5408-.3392l4.42-5.6349c1.0413.1523 2.0907.2335 3.132.2417l3.4564 6.1515c.2254.3991.6437.6341 1.0827.6341.1271 0 .2564-.0199.3842-.0613l8.9775-2.922c.5631-.1818.9186-.7368.8491-1.3258l-.8247-7.0088c.8373-.6207 1.6369-1.3028 2.3884-2.0396l6.8898 1.9532c.569.1574 1.178-.1042 1.4462-.6319zm-1.75-2.036-6.6134-1.8742c-.4419-.1241-.9186.003-1.2363.3378-.9615 1.0065-2.0198 1.9104-3.1468 2.687-.3791.2616-.5823.7102-.5284 1.1684l.7915 6.7257-7.0421 2.2924-3.3158-5.9032c-.2203-.3924-.6341-.6341-1.0827-.6341h-.0318l-.5099.0067c-1.2031 0-2.4202-.1094-3.6204-.3244-.4553-.0776-.912.0946-1.1972.4552l-4.2427 5.4096-6.5948-3.3588 1.877-6.6134c.1257-.4434-.0029-.9186-.3377-1.2364-1.0028-.9585-1.9066-2.0182-2.687-3.1482-.2616-.3791-.705-.5875-1.1684-.5284l-6.72724.7929-2.2901-7.0428 5.9062-3.3189c.40202-.2254.6459-.6555.6326-1.1159-.03473-1.3723.07094-2.7594.31777-4.1237.08277-.4522-.09237-.9134-.45521-1.1986l-5.40808-4.2442 3.35503-6.5949 6.61333 1.8756c.4405.1242.9186-.0029 1.2364-.3377.9548-.9999 2.0145-1.9036 3.1483-2.6847.3791-.2616.5823-.7102.5284-1.1684l-.793-6.72727 7.0421-2.29086 3.3189 5.9062c.2254.40055.6192.67398 1.1144.6326l.518-.00665c1.2017 0 2.4152.10937 3.6057.32442.4538.08277.9134-.09238 1.1987-.45522l4.2427-5.40959 6.5948 3.3573-1.8756 6.61337c-.1256.4434.003.9186.3377 1.2364.9962.9518 1.8985 2.0116 2.6848 3.1503.2616.3791.702.5942 1.1684.5284l6.7272-.7915 2.2909 7.0383-5.9032 3.3174c-.402.2254-.6459.6555-.6326 1.1159.0347 1.3708-.0709 2.7594-.3178 4.1252-.0827.4537.0924.9134.4552 1.1986l5.4081 4.2427z"/><path d="m98.2131 59.885-2.1535-6.6215c-.1803-.5609-.7264-.9134-1.3258-.8491l-4.9846.5875c-.4006-.5299-.8307-1.0346-1.2881-1.5113l1.3923-4.9018c.1625-.5712-.1042-1.175-.6326-1.4455l-6.2091-3.1584c-.5299-.2698-1.175-.1271-1.5394.3407l-3.1437 4.009c-.657-.0894-1.3213-.1389-1.9783-.1522l-2.4602-4.3772c-.2882-.5166-.9008-.7546-1.4669-.5727l-6.6215 2.155c-.5631.184-.9186.7382-.8491 1.3257l.5875 4.9847c-.5232.3976-1.028.8277-1.5098 1.2881l-4.9033-1.3886c-.5713-.164-1.1773.1027-1.4455.6326l-3.1572 6.2063c-.2682.5284-.1256 1.1735.3407 1.5393l4.0077 3.1452c-.0894.6622-.1404 1.3243-.1522 1.9784l-4.3734 2.4586c-.5166.2912-.7568.9053-.5727 1.4684l2.1571 6.6215c.1818.5609.7249.9024 1.3257.8492l4.9847-.5876c.3939.5218.8262 1.0265 1.2896 1.5098l-1.3923 4.8996c-.1626.5712.1042 1.1772.6326 1.4455l6.2091 3.1599c.5284.2713 1.1735.1272 1.5393-.3392l3.1437-4.009c.654.0894 1.3147.1404 1.9768.1537l2.4551 4.3749c.2254.3991.6437.6341 1.0826.6341.1272 0 .2565-.0199.3843-.0613l6.6267-2.155c.5631-.1818.9185-.7368.8491-1.3258l-.5875-4.986c.5261-.3991 1.0316-.8292 1.5083-1.2881l4.8982 1.3923c.5727.164 1.1772-.1027 1.4455-.6304l3.1615-6.2076c.2697-.5298.1271-1.175-.3392-1.5408l-4.0091-3.1437c.0894-.6607.1404-1.3228.1523-1.9798l4.3734-2.4579c.5151-.2927.7567-.9068.5712-1.4692zm-6.7967 2.1187c-.402.2254-.6474.6555-.6341 1.1174.0281.9799-.048 1.9798-.2283 2.9767-.0813.4522.0946.9134.4552 1.1971l3.7794 2.9635-2.2362 4.3881-4.6165-1.3125c-.4419-.1212-.9186.0052-1.2364.3378-.6902.7235-1.4551 1.3753-2.2732 1.9399-.3792.2616-.5809.7117-.5262 1.1669l.5543 4.6963-4.6913 1.5261-2.3124-4.1222c-.2202-.3909-.6356-.6341-1.0827-.6341h-.0295l-.3592.0052c-.8786 0-1.761-.0798-2.6206-.2365-.4434-.0798-.9134.0946-1.1986.4553l-2.965 3.7793-4.3881-2.2346 1.3124-4.6188c.1257-.4434-.0029-.9186-.3362-1.2364-.7368-.705-1.3886-1.4699-1.9369-2.2695-.2601-.3806-.7168-.5823-1.1706-.5328l-4.6994.5543-1.526-4.6847 4.1252-2.316c.402-.2269.6474-.6555.6341-1.1188-.0281-.9733.048-1.9748.2283-2.9767.0813-.45-.0946-.9119-.4552-1.195l-3.7779-2.9649 2.2319-4.3868 4.6218 1.3095c.4404.1227.9156-.003 1.2334-.334.7006-.7287 1.4669-1.382 2.2761-1.9422.3791-.2616.5823-.7102.5284-1.1669l-.5543-4.6964 4.6846-1.526 2.3191 4.1252c.2269.4005.6488.6673 1.1144.6326l.3754-.0052c.8639 0 1.7396.0798 2.6021.235.4486.0776.9119-.0946 1.1972-.4552l2.9649-3.7794 4.3882 2.2334-1.3125 4.6218c-.1256.4434.0052.9186.3377 1.2386.7183.6821 1.3687 1.4469 1.9384 2.2709.2602.3792.7102.5743 1.1669.5284l4.6964-.5542 1.5246 4.6861z"/><path d="m80.4824 54.6487c-1.4004-.7153-2.905-1.0745-4.4695-1.0745-3.7476 0-7.1278 2.0678-8.8216 5.3984-1.1987 2.3509-1.4071 5.029-.5875 7.5438.8195 2.5149 2.5644 4.5575 4.9166 5.7555 1.4004.7116 2.9021 1.0708 4.4665 1.0708 3.7475 0 7.1277-2.0693 8.8245-5.4015 1.195-2.3508 1.4042-5.0274.5861-7.5415-.821-2.5126-2.5645-4.5576-4.9151-5.751zm2.1143 12.1656c-1.2711 2.495-3.8043 4.0424-6.6118 4.0424-1.1684 0-2.2947-.2698-3.3426-.8026-1.7596-.8942-3.0676-2.4253-3.6802-4.3091-.6126-1.8837-.4567-3.89.439-5.6481 1.2711-2.4927 3.8022-4.0408 6.6097-4.0408 1.1706 0 2.2962.2697 3.3456.8047 1.7596.8942 3.0654 2.4233 3.678 4.307.6119 1.8823.456 3.8872-.4375 5.6469z"/><path d="m49.4731 73.8865c-.184-.5646-.7353-.9024-1.3258-.8506l-3.8124.45c-.2683-.3458-.5514-.6806-.8506-.9999l1.0641-3.7476c.1626-.5712-.1027-1.1772-.6303-1.4455l-4.9263-2.5082c-.5284-.2712-1.172-.1271-1.5408.3392l-2.4055 3.0677c-.4338-.0532-.8705-.088-1.308-.1013l-1.8808-3.3455c-.2912-.5166-.9053-.7597-1.4669-.5728l-5.2522 1.7145c-.5632.1818-.9186.7368-.8491 1.3258l.4485 3.8125c-.3443.2683-.6769.5513-.9961.8506l-3.7512-1.0642c-.5698-.164-1.175.1028-1.4455.6326l-2.506 4.9278c-.2697.5284-.1256 1.1735.3407 1.5393l3.0654 2.4055c-.0547.4353-.088.8706-.1013 1.3058l-3.3455 1.8786c-.5166.2912-.7568.9053-.5727 1.4684l1.71 5.2558c.184.5631.7368.9075 1.3258.8491l3.8125-.4486c.2682.3444.5513.6769.8506.9962l-1.0642 3.7476c-.1626.5712.1027 1.1772.6304 1.4455l4.9277 2.5097c.5299.2734 1.1735.1271 1.5394-.3392l2.407-3.0654c.4338.0532.8705.088 1.308.1013l1.8771 3.3455c.2232.3991.6437.6343 1.0827.6343.1271 0 .2579-.0201.3842-.0615l5.2558-1.7116c.5631-.1818.9171-.7368.8491-1.3257l-.4485-3.8104c.3429-.2646.6754-.5499.9947-.8492l3.7511 1.0627c.5728.1641 1.1751-.1042 1.4455-.6326l2.5083-4.9262c.2697-.5284.1256-1.1735-.3407-1.5393l-3.0654-2.4055c.0532-.4353.0879-.8706.1012-1.3059l3.3456-1.8822c.5151-.2897.7567-.9023.5713-1.4647zm-4.0571 6.7921c-.4005.2254-.6437.654-.6326 1.1122.02.7679-.0399 1.5475-.1774 2.3124-.0812.4523.0946.9135.4553 1.1972l2.8327 2.2215-1.5808 3.1068-3.4644-.9814c-.4456-.1257-.9171.0029-1.2348.334-.5447.5675-1.1374 1.073-1.7633 1.5046-.3791.2601-.5823.7102-.5299 1.1669l.4139 3.5192-3.3204 1.0812-1.733-3.089c-.2203-.3924-.6341-.6341-1.0827-.6341h-.0332l-.2979.0052c-.6702 0-1.3494-.0614-2.0131-.1818-.4522-.0813-.9156.0924-1.1986.4552l-2.223 2.8327-3.1068-1.5822.9836-3.4631c.1257-.4434-.0029-.9201-.3362-1.2386-.5609-.535-1.0694-1.1292-1.5061-1.761-.2616-.3777-.6954-.5676-1.1669-.5262l-3.5192.4153-1.0812-3.3204 3.089-1.7352c.402-.2268.6459-.6555.6326-1.1159-.0199-.7634.0399-1.543.1789-2.3109.0813-.4522-.0946-.9134-.4553-1.1972l-2.8326-2.2229 1.5807-3.1068 3.4644.9836c.4419.1212.9171-.0015 1.2349-.3362.538-.5609 1.1321-1.0679 1.7662-1.5047.3791-.2616.5808-.7116.5261-1.1669l-.4138-3.5192 3.3189-1.0789 1.7367 3.089c.2254.402.6473.6503 1.1144.6341l.2963-.0052c.6718 0 1.3494.0613 2.0145.1818.4471.0798.9134-.0961 1.1986-.4552l2.2215-2.834 3.1053 1.5807-.9837 3.4631c-.1256.4434.003.92.3378 1.2385.5579.5299 1.0627 1.1255 1.5031 1.7633.2631.3791.7154.5809 1.1684.5284l3.5192-.4153 1.079 3.3189z"/><path d="m36.9781 74.834c-1.147-.586-2.3804-.8809-3.6632-.8809-3.0705 0-5.8434 1.6953-7.2326 4.4266-.98 1.9252-1.1507 4.1199-.4804 6.1796.6703 2.0612 2.1009 3.7341 4.0276 4.7149 1.1307.5779 2.3974.8809 3.6617.8809 3.0705 0 5.8419-1.6953 7.2326-4.4266 2.0248-3.9803.4338-8.8689-3.5457-10.8945zm1.3309 9.7683c-.9637 1.8941-2.8873 3.0691-5.0193 3.0691-.8875 0-1.7396-.2054-2.5362-.6111-1.3361-.6785-2.3257-1.8394-2.7928-3.2694-.4671-1.4299-.3473-2.9501.3326-4.2854.9637-1.8941 2.8873-3.0692 5.0193-3.0692.8875 0 1.7411.2055 2.5362.609 2.7631 1.4056 3.8659 4.7962 2.4602 7.557z"/></g></svg>