<svg fill="none" height="102" viewBox="0 0 89 102" width="89" xmlns="http://www.w3.org/2000/svg" xmlns:xlink="http://www.w3.org/1999/xlink"><mask id="a" fill="#000" height="102" maskUnits="userSpaceOnUse" width="89" x="0" y="0"><path d="m0 0h89v102h-89z" fill="#fff"/><path d="m84.523 60.9289h-.9386v-5.8754c0-1.1754-.8215-1.9975-1.9941-1.9975h-1.1734v-3.4073h3.5194c.4689 0 .8216-.3525.8216-.823-.0009-.4696-.3527-.8221-.8216-.8221h-3.5194v-4.2303h3.5194c.4689 0 .8216-.3524.8216-.8229-.0009-.4697-.3527-.8221-.8216-.8221h-3.5194v-4.2303h3.5194c.4689 0 .8216-.3525.8216-.823-.0009-.4696-.3527-.8221-.8216-.8221h-3.5194v-4.2303h3.5194c.4689 0 .8216-.3524.8216-.8229-.0009-.4697-.3527-.8222-.8216-.8222h-3.5194v-4.2302h3.5194c.4689 0 .8216-.3525.8216-.823 0-.4696-.3519-.8229-.8216-.8229h-3.5194v-4.2303h3.5194c.4689 0 .8216-.3525.8216-.8229 0-.4697-.3519-.823-.8216-.823h-3.5194v-4.2303h3.5194c.4689 0 .8216-.3524.8216-.8229 0-.4697-.3519-.823-.8216-.823h-3.5194v-1.0573c2.1111-.3525 3.7542-2.2329 3.7542-4.46555 0-2.23264-1.6422-4.11318-3.7542-4.46549v-.93771c0-.46967-.3518-.82295-.8215-.82295-.4689 0-.8215.35246-.8215.82295v1.05738c-1.8771.35246-3.2846 1.76228-3.6363 3.64252l-22.4054.00082c-.3518-1.88031-1.8771-3.4073-3.7542-3.64252l.0008-1.0582c0-.46967-.3518-.82295-.8215-.82295-.4689 0-.8215.35246-.8215.82295v1.05738c-2.1111.35246-3.6363 2.23285-3.6363 4.46549 0 2.23286 1.5252 3.99508 3.6363 4.46548v1.0574h-3.4015c-.4688 0-.8215.3525-.8215.823 0 .4696.3518.8229.8215.8229h3.4015v2.1147h-3.4015c-.4688 0-.8215.3525-.8215.823 0 .4696.3518.8229.8215.8229h3.4015v2.1147h-3.4015c-.4688 0-.8215.3525-.8215.823 0 .4697.3518.8229.8215.8229h3.4015v2.1148h-3.4015c-.4688 0-.8215.3524-.8215.8229 0 .4697.3518.823.8215.823h3.4015v2.1147h-3.4015c-.4688 0-.8215.3524-.8215.8229 0 .4697.3518.823.8215.823h3.4015v1.1754h-1.1734c-1.0556 0-1.9941.8229-1.9941 1.9975v5.4058h-9.9714l.0008-5.4081c0-1.0574-.8215-1.9975-1.9941-1.9975h-1.2904v-1.1754h3.5194c.4689 0 .8215-.3525.8215-.823 0-.4697-.3518-.8229-.8215-.8229h-3.5194v-2.1148h3.5194c.4689 0 .8215-.3524.8215-.8229 0-.4697-.3518-.823-.8215-.823h-3.5194v-1.9958h3.5194c.4689 0 .8215-.3525.8215-.823 0-.4697-.3518-.8229-.8215-.8229h-3.5194v-2.1148h3.5194c.4689 0 .8215-.3524.8215-.8229 0-.4697-.3518-.823-.8215-.823h-3.5194v-2.1147h3.5194c.4689 0 .8215-.3524.8215-.8229 0-.4697-.3518-.823-.8215-.823h-3.5194v-11.16214c0-.46968-.3518-.82295-.8215-.82295-.4689.00082-.8207.35327-.8207.82295v11.04594h-3.4015c-.4688 0-.8215.3524-.8215.8229 0 .4697.3518.823.8215.823l3.4015-.0008v2.1147h-3.4015c-.4688 0-.8215.3524-.8215.8229 0 .4697.3518.823.8215.823h3.4015v2.1147h-3.4015c-.4688 0-.8215.3524-.8215.8229 0 .4697.3518.823.8215.823l3.4015-.0008v2.1147h-3.4015c-.4688 0-.8215.3524-.8215.8229 0 .4697.3518.823.8215.823h3.4015v2.1147h-3.4015c-.4688 0-.8215.3525-.8215.823 0 .4696.3518.8229.8215.8229l3.4015-.0008v1.1754h-.9386c-1.0555 0-1.9941.8229-1.9941 1.9975v5.4058h-9.9705v-5.4058c0-1.0574-.8216-1.9975-1.9941-1.9975h-1.0556v-1.1754h3.5194c.4689 0 .8215-.3525.8215-.823 0-.4696-.3518-.8229-.8215-.8229h-3.5194v-2.1147h3.5194c.4689 0 .8215-.3525.8215-.823 0-.4697-.3518-.8229-.8215-.8229h-3.5194l-.0008-1.9959h3.5194c.4688 0 .8215-.3525.8215-.823 0-.4696-.3518-.8229-.8215-.8229h-3.5194v-2.1147h3.5194c.4688 0 .8215-.3525.8215-.823 0-.4697-.3518-.8229-.8215-.8229h-3.5194v-2.1148h3.5194c.4688 0 .8215-.3524.8215-.8229 0-.4697-.3518-.823-.8215-.823h-3.5194v-11.16212c0-.35246-.4689-.82213-.8207-.82213-.4697 0-.8216.46967-.8216.82213v11.04592h-3.4014c-.46887 0-.82154.3525-.82154.8229 0 .4697.35186.823.82154.823l3.4014-.0008v2.1147h-3.4014c-.46887 0-.82154.3525-.82154.8229 0 .4697.35186.823.82154.823h3.4014v2.1147h-3.4014c-.46887 0-.82154.3525-.82154.823 0 .4696.35186.8229.82154.8229l3.4014-.0008v2.1147h-3.4014c-.46887 0-.82154.3525-.82154.823 0 .4696.35186.8229.82154.8229h3.4014v2.1147h-3.4014c-.46887 0-.82154.3525-.82154.823 0 .4697.35186.8229.82154.8229l3.4014-.0008v1.1754h-1.1733c-1.05561 0-1.99414.823-1.99414 1.9975v5.4058h-4.10612c-1.87707 0-3.40144 1.5279-3.40144 3.4073v59.341h59.122l.0008-59.2235c0-1.8803-1.5252-3.4073-3.4014-3.4073h-4.4578v-5.4058c0-1.0573-.8216-1.9975-1.9941-1.9975h-1.0564v-1.1754h3.5194c.4688 0 .8215-.3524.8215-.8229 0-.4697-.3518-.823-.8215-.823h-3.5194v-2.1147h3.5194c.4688 0 .8215-.3525.8215-.823 0-.4696-.3518-.8229-.8215-.8229h-3.5194v-2.113h3.5194c.4688 0 .8215-.3525.8215-.823 0-.4697-.3518-.8229-.8215-.8229h-3.5194v-2.1148h3.5194c.4688 0 .8215-.3524.8215-.8229 0-.4697-.3518-.823-.8215-.823h-3.5194v-2.1147h3.5194c.4688 0 .8215-.3524.8215-.8229 0-.4697-.3518-.823-.8215-.823h-3.5194v-1.0574c1.8771-.3524 3.4014-1.7622 3.7542-3.64248h22.4054c.3518 1.88028 1.7592 3.29018 3.6362 3.64248v1.0574h-3.4014c-.4689 0-.8215.3525-.8215.823 0 .4696.3518.8229.8215.8229h3.4014v4.2303h-3.4014c-.4689 0-.8215.3525-.8215.8229 0 .4697.3518.823.8215.823h3.4014v4.2303h-3.4014c-.4689 0-.8215.3524-.8215.8229 0 .4697.3518.823.8215.823h3.4014v4.2302h-3.4014c-.4689 0-.8215.3525-.8215.823 0 .4697.3518.8229.8215.8229h3.4014v3.9934h-3.4014c-.4689 0-.8215.3525-.8215.823 0 .4696.3518.8229.8215.8229h3.4014v4.2294h-3.4014c-.4689 0-.8215.3525-.8215.823 0 .4697.3518.8229.8215.8229h3.4014v4.2295h-3.4014c-.4689 0-.8215.3524-.8215.8229 0 .4697.3518.823.8215.823h3.4014v3.4073h-1.0555c-1.0556 0-1.9941.9401-1.9941 1.9975v5.8754h-1.4074c-1.8771 0-3.4015 1.5278-3.4015 3.4073v36.6623h17.0091l-.0008-36.5448c-.117-1.8803-1.7592-3.5255-3.6363-3.5255zm-56.5413-28.0843c0-.2353.117-.3525.3518-.3525h3.8711c.2349 0 .3519.1172.3519.3525v5.4058h-4.575zm-17.8299 0c0-.2353.1171-.3525.3519-.3525h3.8711c.2348 0 .3518.1172.3518.3525v5.4058h-4.5749zm38.1244 28.2018c1.5252 0 3.0497.5877 4.1061 1.7623 1.0555 1.1754 1.7592 2.5851 1.7592 4.1131v17.1566h-11.7305v-17.1566c0-3.1729 2.6977-5.8754 5.8652-5.8754zm4.3401 24.6766v4.6998h-8.915v-4.6998zm1.6422 0h1.5252v-18.8017c0-1.9975-.8215-3.8777-2.229-5.2876-1.2904-1.2926-2.8155-1.9975-4.5749-2.1147v-15.3933h9.3846v46.4155h-4.223zm-6.8037-26.2042c-3.7542.4697-6.6869 3.6425-6.6869 7.4032v18.8016h1.2904v4.6999h-5.3964v-4.6999h1.1734v-18.8016c0-1.9975-.8216-3.8778-2.2291-5.2877-1.2904-1.2926-2.8155-1.9975-4.5749-2.1147l.0008-15.3941h16.3055v15.3933zm-17.0091 1.5278c1.5252 0 3.0497.5877 4.1061 1.7623 1.0555 1.1754 1.7592 2.5852 1.7592 4.1132v17.1565l-11.7305-.0008v-17.1557c0-3.1729 2.5806-5.8755 5.8652-5.8755zm4.6918 24.6766v4.6999h-8.915v-4.6999zm-5.6305-26.2042c-3.7542.4697-6.6868 3.6426-6.6868 7.4032v18.8016l1.76-.0008v4.6999h-5.9823v-4.6999h1.4074v-18.8016c0-1.9975-.8215-3.8777-2.229-5.2876-1.2904-1.2926-2.8156-1.9975-4.5749-2.1147v-15.3933h16.3054zm-17.0091 1.5279c1.5252 0 3.0498.5877 4.1061 1.7623 1.0556 1.1754 1.7593 2.5851 1.7593 4.1132v17.1565h-11.73058v-17.1565c0-3.173 2.58064-5.8755 5.86518-5.8755zm4.457 24.6766v4.6998h-8.91501v-4.6998zm-5.2785-26.2042c-3.75424.4697-6.68688 3.6425-6.68688 7.4032v18.8016h1.40742v4.6999h-3.87109l.00082-46.298h9.14983zm-9.14988 39.9525v-7.2852h55.83748v7.2852zm54.07788-59.5763c1.0556 0 1.8771.823 1.8771 1.8804v.7049h-55.95479v-.7049c0-1.0574.82154-1.8804 1.87708-1.8804zm-6.1001-7.0508v5.4057h-4.5749v-5.4057c0-.2353.117-.3525.3518-.3525h3.8711c.2349 0 .352.1181.352.3525zm-5.0437-25.38164c0-1.29263.8215-2.34994 1.9941-2.82039v5.52283c-1.1734-.35244-1.9941-1.40982-1.9941-2.70244zm3.6362 2.81974v-5.64013c1.2904.35246 2.2291 1.40984 2.2291 2.82039 0 1.40984-1.0556 2.46724-2.2291 2.81974zm33.5494-2.81974c0 1.29262-.9385 2.46808-2.111 2.82034v-5.6401c1.1725.35164 2.111 1.409 2.111 2.81976zm-5.8652 0c0-1.29263.9385-2.46808 2.111-2.82039v5.52283c-1.2895-.35244-2.111-1.40982-2.111-2.70244zm.7037 47.59054c0-.2353.117-.3525.3518-.3525h3.8711c.117 0 .3519.2353.3519.3525v5.8754h-4.575zm-3.0498 7.5205h10.0883c1.0556 0 1.8771.8229 1.8771 1.8803v20.4465h-13.7254v-20.4465c0-1.0574.8215-1.8803 1.76-1.8803zm11.9654 23.9715v3.7598h-13.7254v-3.7606zm-13.7254 12.9254v-7.5205h13.7248v7.5205z" fill="none"/></mask><path d="m84.523 60.9289h-.9386v-5.8754c0-1.1754-.8215-1.9975-1.9941-1.9975h-1.1734v-3.4073h3.5194c.4689 0 .8216-.3525.8216-.823-.0009-.4696-.3527-.8221-.8216-.8221h-3.5194v-4.2303h3.5194c.4689 0 .8216-.3524.8216-.8229-.0009-.4697-.3527-.8221-.8216-.8221h-3.5194v-4.2303h3.5194c.4689 0 .8216-.3525.8216-.823-.0009-.4696-.3527-.8221-.8216-.8221h-3.5194v-4.2303h3.5194c.4689 0 .8216-.3524.8216-.8229-.0009-.4697-.3527-.8222-.8216-.8222h-3.5194v-4.2302h3.5194c.4689 0 .8216-.3525.8216-.823 0-.4696-.3519-.8229-.8216-.8229h-3.5194v-4.2303h3.5194c.4689 0 .8216-.3525.8216-.8229 0-.4697-.3519-.823-.8216-.823h-3.5194v-4.2303h3.5194c.4689 0 .8216-.3524.8216-.8229 0-.4697-.3519-.823-.8216-.823h-3.5194v-1.0573c2.1111-.3525 3.7542-2.2329 3.7542-4.46555 0-2.23264-1.6422-4.11318-3.7542-4.46549v-.93771c0-.46967-.3518-.82295-.8215-.82295-.4689 0-.8215.35246-.8215.82295v1.05738c-1.8771.35246-3.2846 1.76228-3.6363 3.64252l-22.4054.00082c-.3518-1.88031-1.8771-3.4073-3.7542-3.64252l.0008-1.0582c0-.46967-.3518-.82295-.8215-.82295-.4689 0-.8215.35246-.8215.82295v1.05738c-2.1111.35246-3.6363 2.23285-3.6363 4.46549 0 2.23286 1.5252 3.99508 3.6363 4.46548v1.0574h-3.4015c-.4688 0-.8215.3525-.8215.823 0 .4696.3518.8229.8215.8229h3.4015v2.1147h-3.4015c-.4688 0-.8215.3525-.8215.823 0 .4696.3518.8229.8215.8229h3.4015v2.1147h-3.4015c-.4688 0-.8215.3525-.8215.823 0 .4697.3518.8229.8215.8229h3.4015v2.1148h-3.4015c-.4688 0-.8215.3524-.8215.8229 0 .4697.3518.823.8215.823h3.4015v2.1147h-3.4015c-.4688 0-.8215.3524-.8215.8229 0 .4697.3518.823.8215.823h3.4015v1.1754h-1.1734c-1.0556 0-1.9941.8229-1.9941 1.9975v5.4058h-9.9714l.0008-5.4081c0-1.0574-.8215-1.9975-1.9941-1.9975h-1.2904v-1.1754h3.5194c.4689 0 .8215-.3525.8215-.823 0-.4697-.3518-.8229-.8215-.8229h-3.5194v-2.1148h3.5194c.4689 0 .8215-.3524.8215-.8229 0-.4697-.3518-.823-.8215-.823h-3.5194v-1.9958h3.5194c.4689 0 .8215-.3525.8215-.823 0-.4697-.3518-.8229-.8215-.8229h-3.5194v-2.1148h3.5194c.4689 0 .8215-.3524.8215-.8229 0-.4697-.3518-.823-.8215-.823h-3.5194v-2.1147h3.5194c.4689 0 .8215-.3524.8215-.8229 0-.4697-.3518-.823-.8215-.823h-3.5194v-11.16214c0-.46968-.3518-.82295-.8215-.82295-.4689.00082-.8207.35327-.8207.82295v11.04594h-3.4015c-.4688 0-.8215.3524-.8215.8229 0 .4697.3518.823.8215.823l3.4015-.0008v2.1147h-3.4015c-.4688 0-.8215.3524-.8215.8229 0 .4697.3518.823.8215.823h3.4015v2.1147h-3.4015c-.4688 0-.8215.3524-.8215.8229 0 .4697.3518.823.8215.823l3.4015-.0008v2.1147h-3.4015c-.4688 0-.8215.3524-.8215.8229 0 .4697.3518.823.8215.823h3.4015v2.1147h-3.4015c-.4688 0-.8215.3525-.8215.823 0 .4696.3518.8229.8215.8229l3.4015-.0008v1.1754h-.9386c-1.0555 0-1.9941.8229-1.9941 1.9975v5.4058h-9.9705v-5.4058c0-1.0574-.8216-1.9975-1.9941-1.9975h-1.0556v-1.1754h3.5194c.4689 0 .8215-.3525.8215-.823 0-.4696-.3518-.8229-.8215-.8229h-3.5194v-2.1147h3.5194c.4689 0 .8215-.3525.8215-.823 0-.4697-.3518-.8229-.8215-.8229h-3.5194l-.0008-1.9959h3.5194c.4688 0 .8215-.3525.8215-.823 0-.4696-.3518-.8229-.8215-.8229h-3.5194v-2.1147h3.5194c.4688 0 .8215-.3525.8215-.823 0-.4697-.3518-.8229-.8215-.8229h-3.5194v-2.1148h3.5194c.4688 0 .8215-.3524.8215-.8229 0-.4697-.3518-.823-.8215-.823h-3.5194v-11.16212c0-.35246-.4689-.82213-.8207-.82213-.4697 0-.8216.46967-.8216.82213v11.04592h-3.4014c-.46887 0-.82154.3525-.82154.8229 0 .4697.35186.823.82154.823l3.4014-.0008v2.1147h-3.4014c-.46887 0-.82154.3525-.82154.8229 0 .4697.35186.823.82154.823h3.4014v2.1147h-3.4014c-.46887 0-.82154.3525-.82154.823 0 .4696.35186.8229.82154.8229l3.4014-.0008v2.1147h-3.4014c-.46887 0-.82154.3525-.82154.823 0 .4696.35186.8229.82154.8229h3.4014v2.1147h-3.4014c-.46887 0-.82154.3525-.82154.823 0 .4697.35186.8229.82154.8229l3.4014-.0008v1.1754h-1.1733c-1.05561 0-1.99414.823-1.99414 1.9975v5.4058h-4.10612c-1.87707 0-3.40144 1.5279-3.40144 3.4073v59.341h59.122l.0008-59.2235c0-1.8803-1.5252-3.4073-3.4014-3.4073h-4.4578v-5.4058c0-1.0573-.8216-1.9975-1.9941-1.9975h-1.0564v-1.1754h3.5194c.4688 0 .8215-.3524.8215-.8229 0-.4697-.3518-.823-.8215-.823h-3.5194v-2.1147h3.5194c.4688 0 .8215-.3525.8215-.823 0-.4696-.3518-.8229-.8215-.8229h-3.5194v-2.113h3.5194c.4688 0 .8215-.3525.8215-.823 0-.4697-.3518-.8229-.8215-.8229h-3.5194v-2.1148h3.5194c.4688 0 .8215-.3524.8215-.8229 0-.4697-.3518-.823-.8215-.823h-3.5194v-2.1147h3.5194c.4688 0 .8215-.3524.8215-.8229 0-.4697-.3518-.823-.8215-.823h-3.5194v-1.0574c1.8771-.3524 3.4014-1.7622 3.7542-3.64248h22.4054c.3518 1.88028 1.7592 3.29018 3.6362 3.64248v1.0574h-3.4014c-.4689 0-.8215.3525-.8215.823 0 .4696.3518.8229.8215.8229h3.4014v4.2303h-3.4014c-.4689 0-.8215.3525-.8215.8229 0 .4697.3518.823.8215.823h3.4014v4.2303h-3.4014c-.4689 0-.8215.3524-.8215.8229 0 .4697.3518.823.8215.823h3.4014v4.2302h-3.4014c-.4689 0-.8215.3525-.8215.823 0 .4697.3518.8229.8215.8229h3.4014v3.9934h-3.4014c-.4689 0-.8215.3525-.8215.823 0 .4696.3518.8229.8215.8229h3.4014v4.2294h-3.4014c-.4689 0-.8215.3525-.8215.823 0 .4697.3518.8229.8215.8229h3.4014v4.2295h-3.4014c-.4689 0-.8215.3524-.8215.8229 0 .4697.3518.823.8215.823h3.4014v3.4073h-1.0555c-1.0556 0-1.9941.9401-1.9941 1.9975v5.8754h-1.4074c-1.8771 0-3.4015 1.5278-3.4015 3.4073v36.6623h17.0091l-.0008-36.5448c-.117-1.8803-1.7592-3.5255-3.6363-3.5255zm-56.5413-28.0843c0-.2353.117-.3525.3518-.3525h3.8711c.2349 0 .3519.1172.3519.3525v5.4058h-4.575zm-17.8299 0c0-.2353.1171-.3525.3519-.3525h3.8711c.2348 0 .3518.1172.3518.3525v5.4058h-4.5749zm38.1244 28.2018c1.5252 0 3.0497.5877 4.1061 1.7623 1.0555 1.1754 1.7592 2.5851 1.7592 4.1131v17.1566h-11.7305v-17.1566c0-3.1729 2.6977-5.8754 5.8652-5.8754zm4.3401 24.6766v4.6998h-8.915v-4.6998zm1.6422 0h1.5252v-18.8017c0-1.9975-.8215-3.8777-2.229-5.2876-1.2904-1.2926-2.8155-1.9975-4.5749-2.1147v-15.3933h9.3846v46.4155h-4.223zm-6.8037-26.2042c-3.7542.4697-6.6869 3.6425-6.6869 7.4032v18.8016h1.2904v4.6999h-5.3964v-4.6999h1.1734v-18.8016c0-1.9975-.8216-3.8778-2.2291-5.2877-1.2904-1.2926-2.8155-1.9975-4.5749-2.1147l.0008-15.3941h16.3055v15.3933zm-17.0091 1.5278c1.5252 0 3.0497.5877 4.1061 1.7623 1.0555 1.1754 1.7592 2.5852 1.7592 4.1132v17.1565l-11.7305-.0008v-17.1557c0-3.1729 2.5806-5.8755 5.8652-5.8755zm4.6918 24.6766v4.6999h-8.915v-4.6999zm-5.6305-26.2042c-3.7542.4697-6.6868 3.6426-6.6868 7.4032v18.8016l1.76-.0008v4.6999h-5.9823v-4.6999h1.4074v-18.8016c0-1.9975-.8215-3.8777-2.229-5.2876-1.2904-1.2926-2.8156-1.9975-4.5749-2.1147v-15.3933h16.3054zm-17.0091 1.5279c1.5252 0 3.0498.5877 4.1061 1.7623 1.0556 1.1754 1.7593 2.5851 1.7593 4.1132v17.1565h-11.73058v-17.1565c0-3.173 2.58064-5.8755 5.86518-5.8755zm4.457 24.6766v4.6998h-8.91501v-4.6998zm-5.2785-26.2042c-3.75424.4697-6.68688 3.6425-6.68688 7.4032v18.8016h1.40742v4.6999h-3.87109l.00082-46.298h9.14983zm-9.14988 39.9525v-7.2852h55.83748v7.2852zm54.07788-59.5763c1.0556 0 1.8771.823 1.8771 1.8804v.7049h-55.95479v-.7049c0-1.0574.82154-1.8804 1.87708-1.8804zm-6.1001-7.0508v5.4057h-4.5749v-5.4057c0-.2353.117-.3525.3518-.3525h3.8711c.2349 0 .352.1181.352.3525zm-5.0437-25.38164c0-1.29263.8215-2.34994 1.9941-2.82039v5.52283c-1.1734-.35244-1.9941-1.40982-1.9941-2.70244zm3.6362 2.81974v-5.64013c1.2904.35246 2.2291 1.40984 2.2291 2.82039 0 1.40984-1.0556 2.46724-2.2291 2.81974zm33.5494-2.81974c0 1.29262-.9385 2.46808-2.111 2.82034v-5.6401c1.1725.35164 2.111 1.409 2.111 2.81976zm-5.8652 0c0-1.29263.9385-2.46808 2.111-2.82039v5.52283c-1.2895-.35244-2.111-1.40982-2.111-2.70244zm.7037 47.59054c0-.2353.117-.3525.3518-.3525h3.8711c.117 0 .3519.2353.3519.3525v5.8754h-4.575zm-3.0498 7.5205h10.0883c1.0556 0 1.8771.8229 1.8771 1.8803v20.4465h-13.7254v-20.4465c0-1.0574.8215-1.8803 1.76-1.8803zm11.9654 23.9715v3.7598h-13.7254v-3.7606zm-13.7254 12.9254v-7.5205h13.7248v7.5205z" fill="#a9a9a9"/><path d="m84.523 60.9289h-.9386v-5.8754c0-1.1754-.8215-1.9975-1.9941-1.9975h-1.1734v-3.4073h3.5194c.4689 0 .8216-.3525.8216-.823-.0009-.4696-.3527-.8221-.8216-.8221h-3.5194v-4.2303h3.5194c.4689 0 .8216-.3524.8216-.8229-.0009-.4697-.3527-.8221-.8216-.8221h-3.5194v-4.2303h3.5194c.4689 0 .8216-.3525.8216-.823-.0009-.4696-.3527-.8221-.8216-.8221h-3.5194v-4.2303h3.5194c.4689 0 .8216-.3524.8216-.8229-.0009-.4697-.3527-.8222-.8216-.8222h-3.5194v-4.2302h3.5194c.4689 0 .8216-.3525.8216-.823 0-.4696-.3519-.8229-.8216-.8229h-3.5194v-4.2303h3.5194c.4689 0 .8216-.3525.8216-.8229 0-.4697-.3519-.823-.8216-.823h-3.5194v-4.2303h3.5194c.4689 0 .8216-.3524.8216-.8229 0-.4697-.3519-.823-.8216-.823h-3.5194v-1.0573c2.1111-.3525 3.7542-2.2329 3.7542-4.46555 0-2.23264-1.6422-4.11318-3.7542-4.46549v-.93771c0-.46967-.3518-.82295-.8215-.82295-.4689 0-.8215.35246-.8215.82295v1.05738c-1.8771.35246-3.2846 1.76228-3.6363 3.64252l-22.4054.00082c-.3518-1.88031-1.8771-3.4073-3.7542-3.64252l.0008-1.0582c0-.46967-.3518-.82295-.8215-.82295-.4689 0-.8215.35246-.8215.82295v1.05738c-2.1111.35246-3.6363 2.23285-3.6363 4.46549 0 2.23286 1.5252 3.99508 3.6363 4.46548v1.0574h-3.4015c-.4688 0-.8215.3525-.8215.823 0 .4696.3518.8229.8215.8229h3.4015v2.1147h-3.4015c-.4688 0-.8215.3525-.8215.823 0 .4696.3518.8229.8215.8229h3.4015v2.1147h-3.4015c-.4688 0-.8215.3525-.8215.823 0 .4697.3518.8229.8215.8229h3.4015v2.1148h-3.4015c-.4688 0-.8215.3524-.8215.8229 0 .4697.3518.823.8215.823h3.4015v2.1147h-3.4015c-.4688 0-.8215.3524-.8215.8229 0 .4697.3518.823.8215.823h3.4015v1.1754h-1.1734c-1.0556 0-1.9941.8229-1.9941 1.9975v5.4058h-9.9714l.0008-5.4081c0-1.0574-.8215-1.9975-1.9941-1.9975h-1.2904v-1.1754h3.5194c.4689 0 .8215-.3525.8215-.823 0-.4697-.3518-.8229-.8215-.8229h-3.5194v-2.1148h3.5194c.4689 0 .8215-.3524.8215-.8229 0-.4697-.3518-.823-.8215-.823h-3.5194v-1.9958h3.5194c.4689 0 .8215-.3525.8215-.823 0-.4697-.3518-.8229-.8215-.8229h-3.5194v-2.1148h3.5194c.4689 0 .8215-.3524.8215-.8229 0-.4697-.3518-.823-.8215-.823h-3.5194v-2.1147h3.5194c.4689 0 .8215-.3524.8215-.8229 0-.4697-.3518-.823-.8215-.823h-3.5194v-11.16214c0-.46968-.3518-.82295-.8215-.82295-.4689.00082-.8207.35327-.8207.82295v11.04594h-3.4015c-.4688 0-.8215.3524-.8215.8229 0 .4697.3518.823.8215.823l3.4015-.0008v2.1147h-3.4015c-.4688 0-.8215.3524-.8215.8229 0 .4697.3518.823.8215.823h3.4015v2.1147h-3.4015c-.4688 0-.8215.3524-.8215.8229 0 .4697.3518.823.8215.823l3.4015-.0008v2.1147h-3.4015c-.4688 0-.8215.3524-.8215.8229 0 .4697.3518.823.8215.823h3.4015v2.1147h-3.4015c-.4688 0-.8215.3525-.8215.823 0 .4696.3518.8229.8215.8229l3.4015-.0008v1.1754h-.9386c-1.0555 0-1.9941.8229-1.9941 1.9975v5.4058h-9.9705v-5.4058c0-1.0574-.8216-1.9975-1.9941-1.9975h-1.0556v-1.1754h3.5194c.4689 0 .8215-.3525.8215-.823 0-.4696-.3518-.8229-.8215-.8229h-3.5194v-2.1147h3.5194c.4689 0 .8215-.3525.8215-.823 0-.4697-.3518-.8229-.8215-.8229h-3.5194l-.0008-1.9959h3.5194c.4688 0 .8215-.3525.8215-.823 0-.4696-.3518-.8229-.8215-.8229h-3.5194v-2.1147h3.5194c.4688 0 .8215-.3525.8215-.823 0-.4697-.3518-.8229-.8215-.8229h-3.5194v-2.1148h3.5194c.4688 0 .8215-.3524.8215-.8229 0-.4697-.3518-.823-.8215-.823h-3.5194v-11.16212c0-.35246-.4689-.82213-.8207-.82213-.4697 0-.8216.46967-.8216.82213v11.04592h-3.4014c-.46887 0-.82154.3525-.82154.8229 0 .4697.35186.823.82154.823l3.4014-.0008v2.1147h-3.4014c-.46887 0-.82154.3525-.82154.8229 0 .4697.35186.823.82154.823h3.4014v2.1147h-3.4014c-.46887 0-.82154.3525-.82154.823 0 .4696.35186.8229.82154.8229l3.4014-.0008v2.1147h-3.4014c-.46887 0-.82154.3525-.82154.823 0 .4696.35186.8229.82154.8229h3.4014v2.1147h-3.4014c-.46887 0-.82154.3525-.82154.823 0 .4697.35186.8229.82154.8229l3.4014-.0008v1.1754h-1.1733c-1.05561 0-1.99414.823-1.99414 1.9975v5.4058h-4.10612c-1.87707 0-3.40144 1.5279-3.40144 3.4073v59.341h59.122l.0008-59.2235c0-1.8803-1.5252-3.4073-3.4014-3.4073h-4.4578v-5.4058c0-1.0573-.8216-1.9975-1.9941-1.9975h-1.0564v-1.1754h3.5194c.4688 0 .8215-.3524.8215-.8229 0-.4697-.3518-.823-.8215-.823h-3.5194v-2.1147h3.5194c.4688 0 .8215-.3525.8215-.823 0-.4696-.3518-.8229-.8215-.8229h-3.5194v-2.113h3.5194c.4688 0 .8215-.3525.8215-.823 0-.4697-.3518-.8229-.8215-.8229h-3.5194v-2.1148h3.5194c.4688 0 .8215-.3524.8215-.8229 0-.4697-.3518-.823-.8215-.823h-3.5194v-2.1147h3.5194c.4688 0 .8215-.3524.8215-.8229 0-.4697-.3518-.823-.8215-.823h-3.5194v-1.0574c1.8771-.3524 3.4014-1.7622 3.7542-3.64248h22.4054c.3518 1.88028 1.7592 3.29018 3.6362 3.64248v1.0574h-3.4014c-.4689 0-.8215.3525-.8215.823 0 .4696.3518.8229.8215.8229h3.4014v4.2303h-3.4014c-.4689 0-.8215.3525-.8215.8229 0 .4697.3518.823.8215.823h3.4014v4.2303h-3.4014c-.4689 0-.8215.3524-.8215.8229 0 .4697.3518.823.8215.823h3.4014v4.2302h-3.4014c-.4689 0-.8215.3525-.8215.823 0 .4697.3518.8229.8215.8229h3.4014v3.9934h-3.4014c-.4689 0-.8215.3525-.8215.823 0 .4696.3518.8229.8215.8229h3.4014v4.2294h-3.4014c-.4689 0-.8215.3525-.8215.823 0 .4697.3518.8229.8215.8229h3.4014v4.2295h-3.4014c-.4689 0-.8215.3524-.8215.8229 0 .4697.3518.823.8215.823h3.4014v3.4073h-1.0555c-1.0556 0-1.9941.9401-1.9941 1.9975v5.8754h-1.4074c-1.8771 0-3.4015 1.5278-3.4015 3.4073v36.6623h17.0091l-.0008-36.5448c-.117-1.8803-1.7592-3.5255-3.6363-3.5255zm-56.5413-28.0843c0-.2353.117-.3525.3518-.3525h3.8711c.2349 0 .3519.1172.3519.3525v5.4058h-4.575zm-17.8299 0c0-.2353.1171-.3525.3519-.3525h3.8711c.2348 0 .3518.1172.3518.3525v5.4058h-4.5749zm38.1244 28.2018c1.5252 0 3.0497.5877 4.1061 1.7623 1.0555 1.1754 1.7592 2.5851 1.7592 4.1131v17.1566h-11.7305v-17.1566c0-3.1729 2.6977-5.8754 5.8652-5.8754zm4.3401 24.6766v4.6998h-8.915v-4.6998zm1.6422 0h1.5252v-18.8017c0-1.9975-.8215-3.8777-2.229-5.2876-1.2904-1.2926-2.8155-1.9975-4.5749-2.1147v-15.3933h9.3846v46.4155h-4.223zm-6.8037-26.2042c-3.7542.4697-6.6869 3.6425-6.6869 7.4032v18.8016h1.2904v4.6999h-5.3964v-4.6999h1.1734v-18.8016c0-1.9975-.8216-3.8778-2.2291-5.2877-1.2904-1.2926-2.8155-1.9975-4.5749-2.1147l.0008-15.3941h16.3055v15.3933zm-17.0091 1.5278c1.5252 0 3.0497.5877 4.1061 1.7623 1.0555 1.1754 1.7592 2.5852 1.7592 4.1132v17.1565l-11.7305-.0008v-17.1557c0-3.1729 2.5806-5.8755 5.8652-5.8755zm4.6918 24.6766v4.6999h-8.915v-4.6999zm-5.6305-26.2042c-3.7542.4697-6.6868 3.6426-6.6868 7.4032v18.8016l1.76-.0008v4.6999h-5.9823v-4.6999h1.4074v-18.8016c0-1.9975-.8215-3.8777-2.229-5.2876-1.2904-1.2926-2.8156-1.9975-4.5749-2.1147v-15.3933h16.3054zm-17.0091 1.5279c1.5252 0 3.0498.5877 4.1061 1.7623 1.0556 1.1754 1.7593 2.5851 1.7593 4.1132v17.1565h-11.73058v-17.1565c0-3.173 2.58064-5.8755 5.86518-5.8755zm4.457 24.6766v4.6998h-8.91501v-4.6998zm-5.2785-26.2042c-3.75424.4697-6.68688 3.6425-6.68688 7.4032v18.8016h1.40742v4.6999h-3.87109l.00082-46.298h9.14983zm-9.14988 39.9525v-7.2852h55.83748v7.2852zm54.07788-59.5763c1.0556 0 1.8771.823 1.8771 1.8804v.7049h-55.95479v-.7049c0-1.0574.82154-1.8804 1.87708-1.8804zm-6.1001-7.0508v5.4057h-4.5749v-5.4057c0-.2353.117-.3525.3518-.3525h3.8711c.2349 0 .352.1181.352.3525zm-5.0437-25.38164c0-1.29263.8215-2.34994 1.9941-2.82039v5.52283c-1.1734-.35244-1.9941-1.40982-1.9941-2.70244zm3.6362 2.81974v-5.64013c1.2904.35246 2.2291 1.40984 2.2291 2.82039 0 1.40984-1.0556 2.46724-2.2291 2.81974zm33.5494-2.81974c0 1.29262-.9385 2.46808-2.111 2.82034v-5.6401c1.1725.35164 2.111 1.409 2.111 2.81976zm-5.8652 0c0-1.29263.9385-2.46808 2.111-2.82039v5.52283c-1.2895-.35244-2.111-1.40982-2.111-2.70244zm.7037 47.59054c0-.2353.117-.3525.3518-.3525h3.8711c.117 0 .3519.2353.3519.3525v5.8754h-4.575zm-3.0498 7.5205h10.0883c1.0556 0 1.8771.8229 1.8771 1.8803v20.4465h-13.7254v-20.4465c0-1.0574.8215-1.8803 1.76-1.8803zm11.9654 23.9715v3.7598h-13.7254v-3.7606zm-13.7254 12.9254v-7.5205h13.7248v7.5205z" mask="url(#a)" stroke="#a9a9a9" stroke-width=".6"/></svg>