<svg fill="none" height="101" viewBox="0 0 71 101" width="71" xmlns="http://www.w3.org/2000/svg"><g fill="#a9a9a9"><path d="m35.3943 56.9293c11.4221 0 20.7068-9.2857 20.7068-20.7069 0-11.4221-9.2857-20.7068-20.7068-20.7068-11.4221 0-20.7068 9.2857-20.7068 20.7068 0 11.4222 9.2857 20.7069 20.7068 20.7069zm0-39.3233c10.2623 0 18.6158 8.3533 18.6158 18.6158s-8.3533 18.6159-18.6158 18.6159-18.6158-8.3534-18.6158-18.6159 8.3533-18.6158 18.6158-18.6158z"/><path d="m56.0559 64.4388c.8641-.2386 1.6823-.6706 2.364-1.2842 1.2272-1.1139 1.9208-2.7049 1.8868-4.3642l-.023-1.0227v-.7389c-.023-.4661.0571-.9204.2156-1.3413.3639-.9434 1.1027-1.7275 2.0794-2.1024l2.3981-.9323c1.5569-.6025 2.773-1.8527 3.3415-3.4207.5684-1.5681.4202-3.3074-.398-4.7622l-.7729-1.3754c-.7619-1.3525-.5684-3.0458.4661-4.2049l1.6934-1.8749c1.1249-1.2502 1.6482-2.9206 1.4317-4.5917-.2156-1.6704-1.1479-3.1591-2.5575-4.0803l-1.6252-1.0567c-1.2732-.83-1.8979-2.3871-1.5459-3.8639l.6025-2.5917c.375-1.5911.0452-3.2733-.8863-4.6138-.0111-.023-.023-.0341-.0452-.0571-.6025-.8411-1.4095-1.4888-2.3298-1.8979-.5225-.2275-1.0798-.3861-1.6593-.4542l-2.2728-.2728c-1.5118-.1815-2.7502-1.2953-3.1029-2.7731l-.5002-2.11346c-.375-1.61407-1.4317-2.98882-2.8983-3.76165-1.4658-.77294-3.1932-.88631-4.7393-.29569l-2.1023.79594c-1.4206.54543-3.0459.12526-4.0344-1.02267l-1.2843-1.48881c-1.0908-1.27318-2.6819-2.00016-4.3642-2.00016-1.6822 0-3.2614.72775-4.3642 2.00016l-1.2843 1.48881c-.9885 1.14791-2.6137 1.5681-4.0344 1.02267l-2.1023-.79594c-1.5459-.59062-3.2734-.47725-4.7393.29569-1.4658.77295-2.5234 2.14842-2.8983 3.76165l-.5002 2.11346c-.352 1.4778-1.5911 2.5917-3.1029 2.7731l-2.2728.2728c-1.62516.1934-3.09089 1.0686-4.0344 2.4091-.94338 1.3414-1.26128 3.023-.88631 4.6139l.60251 2.5916c.352 1.4777-.27272 3.0347-1.5459 3.864l-1.62516 1.0567c-1.40954.9204-2.341013 2.4092-2.5575593 4.0803-.2156327 1.6703.3067973 3.3415 1.4317393 4.5917l1.69336 1.8749c1.04565 1.159 1.22721 2.8413.46615 4.2049l-.77295 1.3754c-.81812 1.4547-.96638 3.1932-.39796 4.7622.56842 1.5681 1.78453 2.8183 3.34154 3.4207l2.39804.9323c1.40954.5454 2.341 1.932 2.3189 3.4548l-.0341 1.7726c-.0341 1.6593.6588 3.2504 1.8868 4.3642.6818.6136 1.4888 1.0568 2.353 1.2843l-13.30816 22.7079c-.21563.3639-.18154.8181.06818 1.1479.24973.3409.68178.4883 1.09085.3861l15.04763-3.7617 3.8759 15.1608c.1022.409.4431.716.8641.773h.1474c.3639 0 .7159-.193.8982-.522l11.9898-20.6849 11.9898 20.6849c.1934.329.5343.522.8982.522h.1475c.4201-.057.7618-.364.8641-.773l3.8759-15.1608 15.0476 3.7617c.4091.1022.8411-.0452 1.0908-.3861.2498-.3409.2728-.7841.0682-1.1479l-13.3081-22.7079zm-42.2782-2.8301c-.784-.7158-1.2272-1.7274-1.205-2.7842l.0341-1.7727c.0452-2.387-1.4206-4.5687-3.64837-5.4329l-2.39803-.9323c-.98859-.3861-1.77264-1.182-2.12548-2.1825-.36389-1.0005-.27273-2.1135.24972-3.0347l.77295-1.3754c1.19312-2.1365.89821-4.7963-.73885-6.6149l-1.69336-1.8749c-.71586-.796-1.05675-1.8638-.90931-2.9324.13636-1.0687.73885-2.0113 1.63627-2.6026l1.62517-1.0568c2.00016-1.3072 2.98882-3.7505 2.43213-6.0917l-.60251-2.5916c-.23863-1.0116-.03409-2.0914.56842-2.9436.6025-.8522 1.534-1.4206 2.57965-1.534l2.2728-.2727c2.3751-.2838 4.3413-2.0342 4.8866-4.3642l.5003-2.11351c.2386-1.03457.9204-1.90897 1.8526-2.39803.9324-.50023 2.0342-.56842 3.023-.19344l2.1023.79594c2.2387.85223 4.7963.20454 6.3533-1.61406l1.2843-1.48881c.6929-.80705 1.7163-1.27318 2.7842-1.27318 1.0687 0 2.0794.46615 2.7843 1.27318l1.2843 1.48881c1.5681 1.8186 4.1143 2.46622 6.3532 1.61406l2.1024-.79594c.9886-.37499 2.0914-.30679 3.0229.19344.9323.50022 1.6141 1.37544 1.8527 2.39803l.5002 2.11351c.5455 2.3298 2.5115 4.0803 4.8866 4.3642l2.2728.2727c1.0346.1253 1.9772.6818 2.5685 1.534.6026.8522.8071 1.932.5685 2.9436l-.6026 2.5916c-.5454 2.3299.4321 4.7734 2.4322 6.0917l1.6251 1.0568c.8983.5906 1.5 1.534 1.6363 2.6026.1364 1.0686-.1934 2.1364-.9093 2.9324l-1.6934 1.8749c-1.6362 1.8186-1.9319 4.4774-.7388 6.6149l.7729 1.3754c.5225.9323.6136 2.0342.2498 3.0347-.3639 1.0005-1.1369 1.7956-2.1255 2.1825l-2.398.9323c-2.2278.8641-3.6935 3.0459-3.6484 5.4329l.034 1.7727c.023 1.0567-.4201 2.0682-1.205 2.7842-.784.7159-1.8408 1.0457-2.8865.9323l-2.5344-.2957c-2.4321-.2838-4.7734 1.0227-5.8189 3.2393l-.4432.9323c-.4773 1.0005-1.3636 1.7274-2.4433 2.0002-1.0797.2616-2.2046.034-3.0909-.6247l-.9664-.7278c-1.0116-.7618-2.2277-1.1479-3.4318-1.1479-1.205 0-2.4212.3861-3.4319 1.1479l-.9664.7278c-.8863.6706-2.0112.8982-3.0909.6247-1.0797-.2617-1.966-.9886-2.4433-2.0002l-.4431-.9323c-1.0457-2.2166-3.3868-3.523-5.819-3.2393l-2.5344.2957c-1.0567.1253-2.1023-.2156-2.8865-.9323zm9.1033 35.4936-3.5001-13.6949c-.1363-.5565-.7047-.8863-1.2612-.75l-13.64993 3.4098 12.59233-21.4801 2.3871-.2727c1.5459-.1815 3.0347.6477 3.6934 2.0573l.4432.9323c.7388 1.5681 2.1364 2.7161 3.8187 3.125.8863.2156 1.7845.2275 2.6367.023l4.1367 7.1373-11.3081 19.5139zm29.7766-14.456c-.5566-.1363-1.125.1935-1.2613.75l-3.5001 13.6949-15.9227-27.469c.0912-.0571.1816-.1253.2727-.1934l.9664-.7278c1.2843-.9664 3.08-.9664 4.3642 0l .9664.7278c1.0116.7618 2.2166 1.159 3.4548 1.159.4661 0 .9323-.0571 1.3865-.1705 1.6823-.4201 3.08-1.557 3.8187-3.125l.4432-.9323c.6588-1.4095 2.1484-2.2387 3.6934-2.0573l2.3751.2728 12.5924 21.48-13.6499-3.4097z"/><path d="m32.2238 42.1549c.2045.2045.4661.3068.7388.3068s.5343-.1023.7389-.3068l11.1946-11.1946c.409-.4091.409-1.0687 0-1.4777-.4091-.4091-1.0687-.4091-1.4777 0l-10.4559 10.4559-4.4553-4.4553c-.4091-.4091-1.0687-.4091-1.4777 0-.4091.409-.4091 1.0686 0 1.4777z"/></g></svg>