<svg height="100" viewBox="0 0 681 687" width="99" xmlns="http://www.w3.org/2000/svg"><g fill="#a9a9a9"><path d="m337.37 0h22.29c9.23 1.33 19.42-.59 27.7 4.67 7.97 4.43 12.82 13.04 13.91 21.94 9.11 1.55 17.99 4.12 26.87 6.62.26-2.99-.13-6.5 2.31-8.75 3.35-3.95 10.23-3.39 12.92 1.03 2.36 4.1.78 9.05 1.56 13.51 1.72 1.46 3.92 2.15 5.94 3.09 33.79 15.07 61.92 41.63 80.39 73.55 20.63 35.5 30.69 76.54 32.09 117.4-.15 1.04.19 1.82 1.03 2.33 3.4 2.21 7.16 4.19 9.41 7.72 5.13 6.84 4.93 15.89 4.12 23.99-1.17 9.33-8.71 16.99-17.74 19.15-8.86 14.33-19.88 27.35-33.1 37.85-29.26 23.77-65.49 37.09-102 44.94-40.02 8.24-81.44 10.67-121.99 5.03-4.02-.33-7.59-4-7.21-8.13-.07-4.71 4.56-8.76 9.24-7.77 29.34 3.76 59.15 3.53 88.44-.53 27.44-3.59 54.63-10.11 80.18-20.86 25.61-11 50.18-26.85 66.45-49.92-23.72-.33-47.44-.04-71.16-.14-74.99.01-149.98-.01-224.97 0-29.13.1-58.26-.21-87.37.16 1.76 2.67 3.72 5.21 5.85 7.61 2.62 2.72 5.04 6.53 3.48 10.43-1.5 5.43-9.23 7.22-13.15 3.33-6.29-6.54-11.36-14.13-16.23-21.75-9.4-2.4-17.41-10.64-17.98-20.56-.33-7.57-.83-16.01 4.02-22.39 2.54-3.92 6.75-6.07 10.54-8.53 1.42-42.96 11.97-86.34 34.62-123.2 19.58-32.01 49.11-58.15 84.02-72.2.28-4.09-.21-8.26.6-12.3 1.9-5.23 9.25-6.95 13.28-3.1 2.74 2.08 2.52 5.78 2.76 8.86 9.02-2.18 17.88-5.03 27.06-6.49.85-10.63 8.07-20.37 18.13-23.99 7.62-2.6 15.81-1.55 23.69-2.6m-15.41 17.22c-5.72.54-10.23 6.11-9.84 11.78 0 80.4.03 160.79-.02 241.18 23.66.38 47.34.11 71 .15.38-.13 1.14-.39 1.52-.52.24-78.59.05-157.2.09-235.79-.18-3.95.53-8.35-1.94-11.77-1.85-3.01-5.22-4.9-8.73-5.15-17.32-1.43-34.77-1.41-52.08.12m-53.19 33.01c-.49 15.59-.1 31.2-.22 46.81-.18 3.49.72 7.36-1.24 10.5-2.12 3.55-7.14 4.91-10.75 2.91-2.8-1.3-4.46-4.34-4.39-7.37-.17-15.14.12-30.29-.13-45.43-30.45 13.42-55.73 37.46-72.21 66.25-19.22 33.29-28.4 71.75-29.89 109.96 19.03.02 38.05-.05 57.08.03 3.68-.13 7.17 2.53 8.07 6.09 1.43 5.04-2.87 10.54-8.12 10.24-21.68.11-43.37.03-65.05.04-3.69-.43-7.1 3-6.88 6.66.09 3.95-1.03 8.84 2.22 11.86 2.06 1.98 5.19 1.5 7.8 1.62 50.24-.23 100.5.26 150.73-.25-.19-75.68.02-151.37-.1-227.05-9.16 1.61-18.02 4.5-26.92 7.13m132.42-7.22c-.15 75.72-.01 151.44-.08 227.16 50.32.24 100.65-.01 150.97.13 2.71-.1 6.03.12 7.94-2.21 2.8-3 1.66-7.45 1.82-11.15.28-3.68-3.08-7.12-6.78-6.8-21.69-.07-43.39.08-65.08-.07-4.11.19-7.91-3.11-8.37-7.17-.74-4.85 3.5-9.57 8.44-9.16 18.96-.03 37.93-.05 56.89.04-1.08-33.84-8.74-67.65-23.53-98.17-10.47-21.23-24.8-40.81-43.19-55.85-10.82-8.82-22.54-16.76-35.43-22.22-.18 15.19.01 30.38-.08 45.57.35 4.95-4.9 9.09-9.64 8.09-3.81-.53-7.05-4.3-6.7-8.19 0-15.35-.02-30.71.01-46.06-.24-2.13.58-4.66-.58-6.52-8.59-3.36-17.64-5.37-26.61-7.42z"/><path d="m95.32 308.43c4.74-1.45 10.18 2.59 10.22 7.52.03 24-.01 48 .02 72-.12 10.5 3.42 21.2 10.55 29.01 8.31 9.6 21.33 14.87 33.97 13.85 10.39-.75 20.49-5.56 27.45-13.34 6.91-7.33 10.67-17.37 11.01-27.38.07-24.69-.09-49.39.07-74.08-.27-5.92 7.21-9.82 12.05-6.7 21.39 13.68 41.05 30 58.59 48.35 11.13 11.95 21.79 24.92 27.56 40.4 8.13 20.59 8.54 44.06 1.31 64.98-6.52 19.29-19.39 36.39-36.3 47.78-11.92 7.87-24.89 13.94-37.62 20.37-4.45 2.03-7.25 6.88-6.95 11.74.06 44.37-.03 88.75.04 133.13.36 3.69-1.18 7.79-4.72 9.38-5.69 1.94-11.74.93-17.61.96-17.99.23-35.99.08-53.96-.17-8.32.04-16.69 1.16-24.97-.12-4.61.18-9.47 1.66-13.88-.42-3.56-1.26-5.81-4.91-5.51-8.65-.01-45.05-.02-90.11 0-135.16.07-4.48-2.85-8.76-6.85-10.67-11.54-5.57-22.98-11.37-33.98-17.96-19.57-11.95-34.45-31.32-40.97-53.3-2.93-9.04-3.47-18.57-4.66-27.93-.36-3.35.88-6.59 1.18-9.9 1.12-12.22 4.95-24.14 10.81-34.9 6.47-12 15.67-22.21 24.8-32.22 14-14.47 29.62-27.33 46.1-38.87 4.01-2.66 7.78-5.83 12.25-7.7m-37.53 49.3c-13.15 13.01-26.77 26.47-34.3 43.67-7.88 18.05-8.65 39.17-1.83 57.67 5.99 17.19 18.34 31.95 33.97 41.22 7.27 4.21 14.74 8.08 22.17 12.01 3.94 2.08 8.2 3.54 11.96 5.95 5.74 3.57 9.93 9.37 12.02 15.75 1.57 4.49 1.17 9.33 1.21 14 0 40.66.03 81.32.01 121.98 6.06.01 12.12.06 18.18-.01.22-39.66 0-79.32.11-118.98 0-6.48 2.57-12.94 7.09-17.58 7.69-8.4 21.17-10.36 31.04-4.78 7.68 4.2 12.9 12.55 13.2 21.31.06 40.01-.05 80.02.05 120.03 6.07.06 12.15.07 18.22-.04-.07-42.29-.01-84.59-.03-126.88 0-7.67 2.68-15.44 8.27-20.83 5.11-5.5 12.53-7.53 18.88-11.13 12.15-6.48 25.04-12.3 34.96-22.12 14.13-13.44 22.68-32.45 23.76-51.88.88-13.65-2.02-27.49-8.16-39.7-4.61-9.22-11.37-17.13-18.14-24.82-9.9-11.42-21.28-21.45-33.04-30.91-4.13-3.11-8.03-6.59-12.55-9.15-.3 19.15 0 38.31-.14 57.46-.17 14.11-5.43 28.23-15.07 38.6-12.52 13.91-32.15 20.99-50.66 18.22-11.1-1.43-21.65-6.36-30.08-13.67-12.07-10.44-19.13-26.19-19.59-42.07-.19-19.53.19-39.06-.19-58.59-11.2 7.41-21.38 16.27-31.32 25.27m79.86 194.27c.03 39.33-.15 78.67.09 118 6.33-.09 12.67.21 19-.2-.28-39.62.02-79.24-.15-118.86.06-5.36-5.14-10.03-10.48-9.26-5.04.47-8.94 5.3-8.46 10.32z"/><path d="m611.57 350.63c19.7-2.91 39.66-3.9 59.55-3.16 1.86.15 3.8.23 5.55 1 1.94 1.12 3.13 3.11 4.33 4.93v327.34c-1.9 3.22-5.04 6-9.04 5.61-107.99.03-215.99-.01-323.99.02-2.77 0-5.82-.46-7.69-2.72-2.05-2-2.21-5-2.27-7.68-.25-18.66.51-37.4 3.59-55.83 1.3-8.45 6.97-16.05 14.69-19.72 5.16-2.6 11.05-2.87 16.72-2.82 8.91.08 17.82-.01 26.73.06 4.9-17.8 11.66-35.04 19.8-51.59-8.03-8.17-16.29-16.12-24.24-24.36-6.74-7.03-8.47-17.85-5.46-26.94 1.19-3.2 3.09-6.07 4.99-8.88 21.72-31.36 48.97-58.9 80.24-80.76 8.16-5.91 19.76-6.87 28.59-1.86 5.05 2.77 8.83 7.22 12.89 11.2 4.85 4.83 9.66 9.69 14.5 14.53.92.71 1.93 2.29 3.19 1.19 17.13-9.02 35.3-16.06 53.96-21.22.46-11.36-.13-22.74.28-34.1.77-12.23 11.11-22.58 23.09-24.24m5.27 15.76c-3.2.41-6.64 1.09-8.96 3.53-2.37 2.35-3.2 5.77-3.17 9.02-.01 12.37.07 24.75-.02 37.12-.04 3.64-3.15 6.76-6.66 7.36-21.88 5.55-43.01 14.01-62.75 24.96-3.48 2.09-7.93.75-10.47-2.17-8.93-9.07-17.8-18.21-26.92-27.09-3.32-3.49-9.08-3.77-12.91-.99-29.13 20.33-54.74 45.71-75.16 74.79-2.26 3.35-5.38 6.7-5.22 11.02-.08 3.05 1.53 5.79 3.68 7.84 8.99 9 18.01 17.99 27 27 2.76 2.45 3.35 6.81 1.53 9.98-9.93 18.71-17.71 38.59-22.73 59.17-.73 3.69-4.38 6.47-8.13 6.29-12.68.16-25.37-.04-38.05.05-4.9-.07-9.62 3.98-10.16 8.88-2.47 15.43-3.52 31.08-3.43 46.71 10.87.61 21.77.1 32.66.27 27.26-.15 54.53.26 81.78-.19-.11-16.83 2.03-33.66 6.21-49.96 8.67-32.98 26.42-63.5 50.77-87.35 27.19-26.83 62.64-45.26 100.31-51.72 12.74-2.46 25.76-2.74 38.69-3.08-.19-38.03-.24-76.06-.35-114.08-15.88-.54-31.79.58-47.54 2.64m-15.69 137.85c-32.67 11.35-61.6 32.97-82.06 60.81-22.4 30.04-34.35 67.5-33.97 104.93 34.51-.03 69.03.17 103.54-.1-1.09-25.39 13.25-50.52 35.35-62.91 12.26-7.1 26.6-10.09 40.7-9.21-.16-34.48-.09-68.95-.03-103.43-21.55-.74-43.24 2.62-63.53 9.91m23.39 122.22c-12.82 10.45-20.16 27.01-19.58 43.51 19.93-.01 39.87.16 59.8-.06-.05-18.53-.03-37.07-.05-55.6-14.32-1.56-29.15 2.85-40.17 12.15z"/></g></svg>