<svg fill="none" height="65" viewBox="0 0 194 65" width="194" xmlns="http://www.w3.org/2000/svg">
	<g fill="currentColor">
		<path d="m53.1506 0-9.969 14.1519h10.558l9.9094-14.1519z" />
		<path d="m26.5367 0-26.5367 37.6613 5.86059 6.8523 11.11721-15.8743h15.9936l-6.3602 9.022 5.8681 6.8523 11.1097-15.8743h17.7458l-6.6882-8.5672h-31.6665l14.0549-20.0721z" />
	</g>
	<g fill="currentColor">
		<path d="m92.7482 54.2209c-.1119-.1566-10.7071-15.5537-10.7071-15.5537s-.261-.4176-.7307-.4176h-4.6229v26.2832h5.2492v-16.7243c.0895.1119.1342.1715.1789.2312 3.8474 5.4281 7.6874 10.8562 11.5273 16.2918.1193.164.2386.2311.44.2311 1.1855-.0074 2.3785 0 3.564 0 .0895 0 .179-.0149.2759-.0223v-26.2981h-5.1746v15.9712z" />
		<path d="m137.905 47.8319c-.194 1.5285-.954 2.2816-2.498 2.3934-1.558.1118-3.132.082-4.742.1193v-7.1654s.045-.0373.06-.0373c1.603.0224 3.206 0 4.801.0746 1.342.0671 2.207.8723 2.371 2.2145.097.7903.105 1.6105 0 2.4009m2.014 5.6667c1.856-.6338 3.072-1.9088 3.713-3.7356.678-1.9162.708-3.8772.276-5.8531-.425-1.9386-1.462-3.4522-3.236-4.4066-1.656-.8948-3.46-1.2229-5.302-1.2527-3.444-.0447-10.647-.0224-10.647-.0224v26.2907h5.935v-9.805c.134 0 .239-.0149.343-.0149 1.021 0 2.036.0075 3.057-.0074.254 0 .365.0894.47.3131 1.446 3.0944 2.9 6.1812 4.339 9.2756.097.2087.209.2684.425.2684 2.103-.0075 4.198 0 6.301 0 .089 0 .179-.0075.306-.0149-2.058-3.6685-4.094-7.3071-6.137-10.9532.06-.0298.104-.0597.157-.082z" />
		<path d="m108.898 53.3641h9.7v-4.7049h-9.7v-5.2119h11.542l-.104-5.1895h-17.381v26.2683h17.902l.142-5.1299h-12.101z" />
		<path d="m60.7539 53.3712h9.7005v-4.7049h-9.6931v-5.2417h11.4901v-5.1746h-17.4252v26.2757h17.9098l.1193-5.1373h-12.1014z" />
		<path d="m167.595 50.4177h-5.227v8.9624c-.112.0298-.216.0671-.313.0895-1.551.3579-3.109.3579-4.667.0745-1.007-.1864-1.887-.6263-2.551-1.4315-.507-.6189-.835-1.3422-.976-2.1102-.202-1.1109-.358-2.2368-.418-3.3627-.104-2.0132-.074-4.0264.462-5.9873.284-1.029.776-1.9387 1.671-2.5948.835-.6189 1.789-.8575 2.781-.9842 2.035-.2685 4.041-.0746 6.032.3579.753.164 1.484.4026 2.252.6114.179-1.6851.365-3.3702.551-5.0553-.044-.0224-.074-.0448-.104-.0522-.097-.0373-.194-.0821-.298-.1119-2.304-.7158-4.66-1.0662-7.076-1.0364-1.834.0149-3.639.1864-5.384.7829-2.169.7382-3.936 1.9908-5.152 3.9667-.924 1.5062-1.416 3.1615-1.692 4.8838-.284 1.7597-.328 3.5343-.261 5.3163.067 1.7522.305 3.4746.827 5.1523.582 1.864 1.536 3.4895 3.072 4.7198 2.066 1.6552 4.519 2.2443 7.084 2.3636 1.446.0671 2.908 0 4.347-.1268 1.64-.1491 3.243-.5145 4.764-1.1632.231-.0969.284-.2087.284-.4399 0-4.1605 0-8.3211 0-12.4817v-.343z" />
		<path d="m193.502 38.234c-2.058 0-4.116 0-6.174-.0074-.201 0-.246.1118-.306.246-1.543 3.6386-5.241 12.3922-5.241 12.3922l-5.443-12.3251s-.097-.3131-.425-.3131c-.329 0-6.368.0298-6.368.0298s6.002 11.8405 8.91 17.5743c.097.1938.157.4399.157.6636.007 2.55 0 5.1075 0 7.6575v.3803h6.039v-.4101c0-2.5426 0-5.0851 0-7.6277 0-.2088.06-.4399.149-.6338 2.878-5.7711 5.764-11.5348 8.65-17.3059.052-.0969.096-.2013.141-.3057-.059-.0149-.082-.0223-.097-.0223" />
	</g>
</svg>
