<svg width="61" height="40" viewBox="0 0 61 40" fill="none" xmlns="http://www.w3.org/2000/svg">
	<path fill-rule="evenodd" clip-rule="evenodd" d="M46.9467 13.3333C54.3138 13.3333 60.274 19.3331 60.274 26.6667C60.274 34.0002 54.2468 40 46.8798 40C39.5127 40 33.4855 34.0002 33.4855 26.6667C33.4855 11.9333 45.4734 0 60.274 0C60.274 0 51.5009 3.26643 46.9467 13.3333ZM26.7884 26.6667C26.7884 34.0002 20.7613 40 13.3942 40C6.02716 40 0 34.0002 0 26.6667C0 11.9333 11.9878 0 26.7884 0C26.7884 0 18.0153 3.26679 13.4612 13.3333C20.8282 13.3333 26.7884 19.3331 26.7884 26.6667Z" fill="#DA291C" />
</svg>
