<svg height="157pt" viewBox="0 0 175 157" width="175pt" xmlns="http://www.w3.org/2000/svg">
	<path d="m160.87 2.89c3.06-1.13 6.54-3.24 9.78-1.48 3.25 1.34 4.58 5.35 3.61 8.57-8.66 45.43-17.35 90.85-25.99 136.28-.62 2.77-.63 6.08-2.98 8.07-2.36 2.28-6.27 2.35-8.82.34-14.46-9.78-28.89-19.59-43.34-29.39-7.89 5.72-15.77 11.46-23.75 17.04-3.75 2.82-9.55.17-10.41-4.28-3.92-14.78-7.78-29.58-11.7-44.35-13.82-5.17-27.55-10.55-41.36-15.74-3.26-1.05-5.74-4.56-4.93-8.02.35-2.82 2.83-4.62 5.31-5.54 51.54-20.46 103.05-40.99 154.58-61.5m-94.5 52.45c-13.14 5.27-26.41 10.26-39.43 15.83 9.32 3.72 18.73 7.2 28.1 10.79 2.04.79 3.96 2.35 4.53 4.54 1.3 4.61 2.55 9.23 3.58 13.9.62-1.68 1.49-3.26 2.85-4.45 23.67-23.03 47.73-45.64 71.24-68.82-23.62 9.4-47.27 18.74-70.87 28.21m14.64 45.07c18.29 12.45 36.58 24.9 54.94 37.24 6.89-36.68 13.97-73.32 20.91-109.99-25.4 24.13-50.42 48.66-75.85 72.75m-16.21 5.62c1.62 6.36 3.3 12.7 4.98 19.03 3.82-2.59 7.53-5.34 11.28-8.03-5.49-3.56-10.84-7.33-16.26-11z" fill="#db291c" />
</svg>
