<svg height="183pt" viewBox="0 0 183 183" width="183pt" xmlns="http://www.w3.org/2000/svg">
	<path d="m25.86 28.89c13.93-14.8 32.97-24.63 53.09-27.44 6.28-1.67 12.7-.01 19.06-.7 19.47 1.33 38.46 9.17 53.16 22.04 19.53 16.81 31.54 42.35 31.09 68.21.46 18.99-5.85 37.95-16.92 53.32-10.75 14.93-26.12 26.5-43.5 32.56-22.24 8.01-47.66 6.64-68.89-3.78-1.57-.71-3.19-1.91-4.99-1.16-13.32 3.24-26.6 6.66-39.92 9.85-3.95 1.35-8.11-2.7-6.84-6.67 3.61-13.42 7.47-26.78 11.18-40.18-8-14.54-12.19-31.29-11.38-47.89 1.06-21.52 9.94-42.59 24.86-58.16m12.98 2.94c-11.16 9.92-19.54 22.99-23.59 37.38-5.8 20.07-3.43 42.51 6.94 60.71.93 1.78 2.21 3.74 1.48 5.84-2.8 10.98-6.27 21.78-8.99 32.78 11.48-2.41 22.77-5.7 34.22-8.26 1.97-.66 3.83.45 5.53 1.29 20.66 11.21 46.41 12.24 68.03 3.14 15.82-6.59 29.38-18.47 37.97-33.3 9.63-16.2 12.94-35.94 9.55-54.45-3.21-18.13-13.09-34.96-27.25-46.71-14.28-12.08-32.99-18.8-51.7-18.48-19.07-.02-38.02 7.31-52.19 20.06z" fill="#db291c" />
	<path d="m51.54 45.62c4.16-2.99 9.52-2.65 14.37-2.29 3.46.33 6.2 3.03 7.59 6.08 2.37 5.08 4.21 10.39 6.56 15.48 1.23 2.87 2.76 6.07 1.66 9.23-1.05 4.12-4.25 7.1-6.59 10.48 6.54 9.76 15.52 18.34 26.75 22.32 4.11-2.67 5.71-8.4 10.42-10.49 2.8-1.21 5.9-.39 8.56.78 5.98 2.57 11.74 5.63 17.68 8.29 2.93 1.23 5.22 4.2 5.16 7.45.14 6.78-1.62 14.28-7.08 18.77-5.54 4.49-12.37 7.79-19.63 7.77-7.55.47-14.7-2.41-21.64-4.98-18.85-6.9-33.87-21.42-45.33-37.52-5.28-7-9.41-15.16-10.24-23.99-.96-10.34 3.66-20.94 11.76-27.38m6.9 8.9c-3.79 3.08-6.92 7.39-7.36 12.38-1.22 7.5 2.29 14.64 6.15 20.81 7.38 11.01 16.37 21.1 27.32 28.67 6.8 4.78 14.6 7.88 22.45 10.47 7.17 2.39 15.8 2.01 21.68-3.2 2.85-1.93 3.59-5.43 3.83-8.65-5.3-2.23-10.29-5.12-15.61-7.3-2.5 1.37-3.76 4.38-5.82 6.37-2.37 3.09-6.18 5.81-10.26 4.54-15.82-5.47-29.65-17.07-37.15-32.08-2.28-6.17 3.94-10.17 7.1-14.46-2.16-6-4.85-11.78-7.25-17.68-1.69.01-3.4-.13-5.08.13z" fill="#db291c" />
</svg>
